<?xml version="1.0" encoding="utf-8"?>
<!-- Generator: Adobe Illustrator 27.8.0, SVG Export Plug-In . SVG Version: 6.00 Build 0)  -->
<svg version="1.1" id="Layer_1" xmlns="http://www.w3.org/2000/svg" xmlns:xlink="http://www.w3.org/1999/xlink" x="0px" y="0px"
	 viewBox="0 0 699 222.6" style="enable-background:new 0 0 699 222.6;" xml:space="preserve">
<g id="Group_5" transform="translate(-472 -321)">
	<g id="Group_1" transform="translate(472 321)">
		<path id="Path_1" d="M125,117.6c-6.8,0.1-13.6-1.5-19.7-4.7c-5.9-3.1-10.7-7.9-14-13.7c-3.6-6.8-5.4-14.4-5.2-22.1
			c-0.2-7.7,1.7-15.4,5.6-22.1c3.6-6,8.9-10.8,15.1-14c6.4-3.3,13.6-4.9,20.8-4.9c5.4-0.2,10.7,0.9,15.6,3c3.9,1.7,7.2,4.4,9.7,7.9
			c2.1,2.9,3.3,6.5,3.3,10.1c0.2,2.6-0.8,5.1-2.7,6.9c-1.9,1.7-4.4,2.6-7,2.5c-2.9,0.1-5.6-1.1-7.5-3.3c-2-2.5-3.2-5.6-3.3-8.8
			c-0.1-2-0.1-4,0.2-6c0.2-1.7,0.2-3.3,0-5c-0.2-1.4-0.9-2.7-2-3.6c-1.1-0.6-2.4-0.9-3.7-0.9c-6.2-0.2-12,3.1-15,8.4
			c-4.2,8.3-6,17.6-5.3,26.9c-0.5,8.6,1.5,17.2,6,24.6c4.2,5.8,11.2,9,18.4,8.5c4.2,0.2,8.4-0.7,12.1-2.7c3.4-2.1,6.5-4.9,8.9-8.1
			l1.6,1.3c-2.4,6-6.7,11.1-12.3,14.5C138.7,116,131.9,117.7,125,117.6z"/>
		<path id="Path_2" d="M180.9,117.6c-5.6,0.2-11.1-1.7-15.5-5.2c-4.3-3.8-6.6-9.4-6.3-15.1c0.3-5.5,3.1-10.6,7.6-13.8
			c7.1-5,15.4-8.3,24-9.5c1.7-0.3,3.6-0.7,5.7-1c2.1-0.4,4.3-0.8,6.7-1.2V59.2c0.4-5.2-0.5-10.4-2.6-15.2c-1.7-2.9-4.9-4.6-8.2-4.4
			c-2.3-0.1-4.5,0.8-6,2.5c-1.8,2.5-2.8,5.4-2.9,8.5l-0.3,1.7c0.1,3.6-1.1,7.2-3.3,10c-1.9,2.1-4.6,3.2-7.5,3.2
			c-2.5,0.1-5-0.8-6.8-2.6c-1.8-1.8-2.8-4.3-2.7-6.8c-0.1-4.1,1.6-8.1,4.5-11c3.4-3.2,7.5-5.5,12-6.7c5.3-1.5,10.7-2.3,16.2-2.2
			c7.9-0.5,15.7,2,21.9,6.9c5.1,4.6,7.7,12.1,7.7,22.5v35.2c0,4.8,2.2,7.2,6.7,7.2h3.5l1.4,1.3c-1.8,2.4-4,4.4-6.6,5.9
			c-3.1,1.5-6.6,2.2-10.1,2.1c-4,0.2-7.9-0.9-11.1-3.3c-2.7-2.2-4.6-5.3-5.3-8.7c-3,3.2-6.2,6.1-9.8,8.7
			C190,116.5,185.5,117.7,180.9,117.6z M190.6,107.8c2.1,0,4.1-0.5,6-1.5c2.3-1.4,4.6-2.9,6.6-4.7V74.9l-3.2,0.6
			c-1.1,0.2-2.3,0.4-3.7,0.6c-4.4,1-8.5,3.2-11.7,6.4c-3,3.3-4.6,7.7-4.4,12.2c-0.3,3.5,0.8,7,3,9.8
			C185.2,106.7,187.8,107.9,190.6,107.8z"/>
		<path id="Path_3" d="M260.8,117.6c-5.7,0.4-11.4-1.5-15.8-5.1c-4.1-4.3-6.2-10.3-5.6-16.2V41.8h-11v-1.6l3.8-0.6
			c3-0.6,5.9-1.7,8.5-3.2c2.6-1.5,5-3.4,7.1-5.6l13-14.5h1.6l-0.5,22.3h17.8v3.2h-18v57.3c-0.2,3,0.7,6,2.5,8.4
			c1.5,1.9,3.9,2.9,6.3,2.9c2.1,0,4.1-0.5,5.9-1.7c1.9-1.3,3.6-2.8,5.1-4.5l1.6,1.6c-2.1,3.6-5.1,6.6-8.8,8.6
			C270.1,116.6,265.5,117.7,260.8,117.6z"/>
		<path id="Path_4" d="M297,117.6c-5.6,0.2-11.1-1.7-15.5-5.2c-4.3-3.8-6.6-9.4-6.3-15.1c0.3-5.5,3.1-10.6,7.6-13.8
			c7.1-5,15.4-8.3,24-9.5c1.7-0.3,3.6-0.7,5.7-1c2.1-0.4,4.3-0.8,6.7-1.2V59.2c0.4-5.2-0.5-10.4-2.6-15.2c-1.7-2.9-4.9-4.6-8.2-4.4
			c-2.3-0.1-4.5,0.8-6,2.5c-1.8,2.5-2.8,5.4-2.9,8.5l-0.3,1.7c0.1,3.6-1.1,7.2-3.3,10c-1.9,2.1-4.6,3.2-7.5,3.2
			c-2.5,0.1-5-0.8-6.8-2.6c-1.8-1.8-2.8-4.3-2.7-6.8c-0.1-4.1,1.6-8.1,4.5-11c3.4-3.2,7.5-5.5,12-6.7c5.3-1.5,10.7-2.3,16.2-2.2
			c7.9-0.5,15.7,2,21.9,6.9c5.1,4.6,7.7,12.1,7.7,22.5v35.2c0,4.8,2.2,7.2,6.7,7.2h3.5l1.4,1.3c-1.8,2.4-4,4.4-6.6,5.9
			c-3.1,1.5-6.6,2.2-10.1,2.1c-4,0.2-7.9-0.9-11.1-3.3c-2.7-2.2-4.6-5.3-5.3-8.7c-3,3.2-6.2,6.1-9.8,8.7
			C306.1,116.5,301.6,117.7,297,117.6z M306.7,107.8c2.1,0,4.1-0.5,6-1.5c2.3-1.4,4.6-2.9,6.6-4.7V74.9l-3.2,0.6
			c-1.1,0.2-2.3,0.4-3.7,0.6c-4.4,1-8.5,3.2-11.7,6.4c-3,3.3-4.6,7.7-4.4,12.2c-0.3,3.5,0.8,7,3,9.8
			C301.3,106.7,303.9,107.9,306.7,107.8z"/>
		<path id="Path_5" d="M401.1,153.4c-3.6,0.2-7.2-0.9-10.1-3.2c-2.4-2-3.8-5-3.7-8.1c-0.1-2.8,1.1-5.4,3.2-7.2
			c2-1.8,4.5-2.7,7.2-2.7c2.3-0.1,4.6,0.5,6.7,1.7c1.9,1.2,3.6,2.9,4.8,4.9l1.1,1.3c2.3,3.2,4.7,3.1,7-0.2c1-1.6,2-3.7,3.3-6.3
			c1.2-2.6,2.6-6.1,4.2-10.4l-30.9-73.8c-0.6-1.7-1.4-3.3-2.4-4.9c-1.1-1.4-2.5-2.4-4.1-3.1l-2.9-1.1v-1.6H424v1.4l-3.2,1.3
			c-2.3,0.7-3.5,1.9-3.6,3.6c0,2.1,0.4,4.2,1.2,6.1l16.5,43l15.8-43.4c0.8-1.9,1.1-4,1-6.1c-0.2-1.6-1.5-2.8-4-3.4l-3.3-0.8v-1.6
			h22.1v1.6l-3.5,1.1c-2,0.5-3.8,1.6-5.1,3.2c-1.1,1.8-2.1,3.7-2.7,5.7l-25.6,69.8c-3,8.9-7.2,17.3-12.4,25
			C413.5,150.4,407.5,153.5,401.1,153.4z"/>
		<path id="Path_6" d="M492.2,117.6c-4.7,0.1-9.4-0.6-14-1.8c-4-1.1-7.8-2.7-11.5-4.5l0.2-18.9h1.6l5.4,9.5c1.9,3.7,4.5,6.9,7.7,9.5
			c3.2,2.2,6.9,3.2,10.7,3.1c4.4,0.2,8.7-1,12.3-3.4c3-2.1,4.8-5.5,4.7-9.2c0.1-3.2-1.1-6.3-3.3-8.6c-3.6-2.9-7.9-5-12.4-6l-6.7-2.1
			c-5.8-1.5-11.1-4.6-15.3-8.9c-3.7-4-5.7-9.3-5.6-14.8c-0.1-6.9,3-13.4,8.3-17.8c6.7-5.3,15.2-7.9,23.7-7.3c3.9,0,7.9,0.4,11.7,1.4
			c3.7,0.9,7.2,2.3,10.6,4.1l-1,17.2h-1.5l-5.6-9.9c-1.5-2.8-3.5-5.4-6-7.4c-2.7-1.6-5.7-2.4-8.8-2.1c-3.6,0-7.2,1.1-10.2,3
			c-3,1.8-4.9,5.1-4.8,8.6c-0.1,3.4,1.4,6.6,4.1,8.6c3.7,2.6,7.7,4.6,12,5.9l7.2,2.1c6.3,1.5,12,4.9,16.4,9.6
			c3.3,4.2,5.1,9.4,4.9,14.7c0.2,7.3-3.2,14.3-9.1,18.6C510.4,115.6,501.3,118.1,492.2,117.6z"/>
		<path id="Path_7" d="M557.5,117.6c-5.7,0.4-11.4-1.5-15.8-5.1c-4.1-4.3-6.2-10.3-5.6-16.2V41.8h-11v-1.6l3.8-0.6
			c3-0.6,5.8-1.7,8.5-3.2c2.6-1.5,5-3.4,7.1-5.6l13-14.5h1.6l-0.5,22.3h17.8v3.2h-18v57.3c-0.2,3,0.7,6,2.5,8.4
			c1.5,1.9,3.9,2.9,6.3,2.9c2.1,0,4.1-0.5,5.9-1.7c1.9-1.3,3.6-2.8,5.1-4.5l1.6,1.6c-2.1,3.6-5.1,6.6-8.8,8.6
			C566.8,116.6,562.2,117.7,557.5,117.6z"/>
		<path id="Path_8" d="M4.5,206.6v-1.5l1.9-0.4c1.7-0.4,3.2-1.3,4.4-2.6c1.1-1.3,1.7-3.1,1.6-4.8c0-3.6,0-7.3,0.1-10.8
			c0-3.6,0.1-7.2,0.1-10.8v-37.1H4.4v-1.6l3.3-0.6c1.7,0,3.2-0.8,4.3-2.1c1-1.5,1.7-3.1,1.9-4.9c0.9-3.6,2.3-7,4.4-10.1
			c1.9-2.9,4.1-5.6,6.6-8c3.4-3.3,7.4-5.9,11.9-7.5c4-1.4,8.1-2.1,12.3-2.1c3.7,0,7.4,0.8,10.8,2.4c4.5,2.4,6.2,8,3.8,12.5
			c-0.4,0.7-0.8,1.3-1.3,1.8c-1.8,1.6-4.2,2.4-6.7,2.3c-2.3,0-4.6-0.7-6.5-1.9c-2.4-1.8-4.4-4.1-5.7-6.8l-2.1-2.5
			c-0.7-1.2-1.9-1.9-3.2-2c-1.1,0.1-1.9,0.9-2.4,2.4c-0.8,4-1.3,8-1.5,12.1c-0.3,4.6-0.5,9.2-0.5,13.6h16.5v3H33.6V197
			c-0.1,3.6,2.4,6.7,5.9,7.2l3.7,0.9v1.5L4.5,206.6z"/>
		<path id="Path_9" d="M90.5,208.8c-6.8,0.2-13.5-1.4-19.5-4.7c-5.5-3.1-9.9-7.6-12.8-13.2c-3.1-6.2-4.7-13.1-4.5-20.1
			c-0.2-7,1.5-13.8,4.8-19.9c3.1-5.5,7.6-10,13.1-13c11.8-6.1,25.8-6.1,37.6-0.1c5.5,3,10,7.5,13.1,12.9c3.3,6.2,5,13.1,4.8,20.1
			c0.2,7-1.4,13.9-4.5,20.1c-2.9,5.5-7.3,10.1-12.7,13.1C103.9,207.4,97.2,209,90.5,208.8z M90.5,205.9c3,0.1,6-0.9,8.3-3
			c2.5-3,4.1-6.6,4.5-10.5c1.9-14.2,1.9-28.5,0-42.7c-0.4-3.9-2-7.5-4.5-10.5c-2.3-2-5.2-3.1-8.3-3c-3.1-0.1-6.1,0.9-8.3,3
			c-2.6,2.9-4.2,6.6-4.6,10.5c-1.9,14.2-1.9,28.5,0,42.7c0.4,3.9,2,7.5,4.6,10.5C84.4,204.9,87.4,206,90.5,205.9L90.5,205.9z"/>
		<path id="Path_10" d="M159.7,208.8c-3.6,0-7.2-0.7-10.6-2.2c-3.2-1.5-5.9-4-7.5-7.2c-2-4.1-2.9-8.6-2.6-13.1l0.4-38
			c0.1-1.7-0.3-3.4-1.2-4.9c-1-1.1-2.3-1.8-3.7-2.1l-1.8-0.6v-1.5l26.4-5.2l1.5,1.5l-0.7,21v35.6c-0.2,2.6,0.8,5.2,2.7,6.9
			c2,1.5,4.4,2.3,6.9,2.2c2.5,0,5-0.4,7.4-1.2c2.3-0.9,4.5-2.1,6.5-3.5l0.6-48.1c0.1-1.7-0.2-3.3-1-4.8c-1-1.1-2.4-1.8-3.8-2
			l-1.5-0.4v-1.5l25.8-5.6l1.5,1.5l-0.4,21v40c-0.1,1.7,0.2,3.4,0.9,5c0.9,1.4,2.2,2.5,3.8,3l1.5,0.4v1.5L185,208l-1.3-8.7
			c-3.2,2.7-6.8,4.9-10.6,6.7C168.9,208,164.3,208.9,159.7,208.8z"/>
		<path id="Path_11" d="M219.9,206.6v-1.5l2.1-0.6c3.3-0.8,5.5-3.9,5.2-7.2v-46.2c0.1-1.7-0.2-3.3-1-4.8c-1-1.2-2.4-2-4-2.1
			l-2.2-0.6v-1.5l25.2-8.6l1.5,1.5l1.2,8.9c3.5-3.1,7.4-5.6,11.7-7.5c4-1.9,8.4-2.9,12.8-3c5.5-0.4,10.9,1.6,15,5.3
			c3.8,4.5,5.7,10.3,5.2,16.2v42.6c-0.3,3.5,2.2,6.6,5.6,7.2l1.3,0.4v1.5h-34.8v-1.5l1.9-0.6c3.3-0.8,5.4-3.9,5.2-7.2v-47.1
			c0.7-4.6-2.5-8.8-7.1-9.4c-0.8-0.1-1.6-0.1-2.4,0c-5.3,0.4-10.4,2.7-14.2,6.5v50.2c-0.3,3.4,1.9,6.5,5.2,7.2l1.3,0.4v1.5
			L219.9,206.6z"/>
		<path id="Path_12" d="M379.6,120.5h-22.4v17c-2.6-1.4-5.5-2.5-8.4-3.1c-3.3-0.7-6.6-1-9.9-1c-5.7,0-11.4,1.4-16.4,4.2
			c-5.2,3-9.4,7.4-12.1,12.7c-3.3,6.7-4.9,14-4.6,21.5c-0.3,7.2,1.1,14.4,4.1,21c2.3,5.1,6.2,9.3,11,12.1c4.8,2.7,10.2,4,15.6,3.9
			c3.8,0,7.6-0.5,11.3-1.6c3.2-1,6.3-2.4,9.1-4.3l1.3,5.3l27.5-1.6v-1.5l-1.3-0.4c-1.6-0.3-3-1.2-3.8-2.6c-0.7-1.5-1.1-3.1-1-4.8
			L379.6,120.5z M356.5,199.7c-3.3,2.4-7.3,3.7-11.4,3.7c-5.1,0-9.7-2.8-12.3-7.2c-3.1-4.8-4.7-13-4.7-24.7
			c-0.6-8.9,1.1-17.8,5-25.8c2.2-4.7,6.9-7.9,12.1-8.2c4,0.1,7.9,1.3,11.2,3.5L356.5,199.7z"/>
		<path id="Path_13" d="M460.5,200h-3.2c-4.1,0-6.2-2.2-6.2-6.6v-32.6c0.7-7.7-1.9-15.3-7.2-20.9c-4.2-3.6-9.5-5.7-15-6.1
			c-0.8,1.7-1.6,3.3-2.4,4.8c0.7,0.6,1.3,1.3,1.8,2.1c2,4.4,2.8,9.3,2.4,14.1v11.7c-2.2,0.4-4.2,0.8-6.2,1.1c-2,0.3-3.7,0.7-5.3,1
			c-8,1.1-15.7,4.1-22.3,8.8c-4.2,2.9-6.8,7.6-7.1,12.8c-0.3,5.3,1.8,10.5,5.8,14c4.1,3.3,9.2,5,14.4,4.9c4.3,0.2,8.5-1,12-3.3
			c3.3-2.4,6.3-5.1,9.1-8c0.7,3.2,2.4,6,4.9,8c3,2.2,6.6,3.2,10.3,3c3.2,0.2,6.5-0.5,9.4-1.9c2.4-1.4,4.4-3.3,6.1-5.5L460.5,200z
			 M430.7,194.1c-1.9,1.6-3.9,3.1-6.1,4.4c-1.7,0.9-3.6,1.4-5.5,1.4c-2.6,0-5.1-1.1-6.8-3c-2.1-2.6-3.1-5.8-2.8-9.1
			c-0.2-4.2,1.3-8.2,4.1-11.3c3-3,6.7-5,10.8-6c1.3-0.2,2.4-0.4,3.4-0.6l3-0.6L430.7,194.1z"/>
		<path id="Path_14" d="M483.3,208.8c-5.3,0.3-10.6-1.4-14.7-4.7c-3.8-4-5.7-9.5-5.2-15.1v-42.2h-10.2v-1.5l3.5-0.6
			c2.8-0.6,5.4-1.6,7.9-3c2.4-1.4,4.6-3.2,6.6-5.2l12.1-13.4h1.5l-0.4,20.7h16.5v3h-16.7v44.8c-0.2,2.8,0.6,5.6,2.3,7.8
			c1.4,1.7,3.6,2.7,5.8,2.7c1.9,0,3.8-0.5,5.5-1.5c1.8-1.2,3.3-2.6,4.7-4.2l1.5,1.5c-2,3.3-4.8,6.1-8.1,8
			C492,207.9,487.7,208.9,483.3,208.8z"/>
		<path id="Path_15" d="M504.7,206.6v-1.5l2.1-0.6c1.6-0.4,3.1-1.3,4.1-2.7c0.8-1.4,1.2-3.1,1.1-4.7v-46.2c0.1-1.6-0.3-3.3-1.1-4.7
			c-1-1.2-2.5-2-4.1-2.1l-2.1-0.4v-1.4l27-8.7l1.5,1.5l-0.4,21v41.3c-0.1,1.6,0.3,3.3,1.1,4.7c0.9,1.3,2.3,2.3,3.9,2.7l1.5,0.4v1.5
			L504.7,206.6z"/>
		<path id="Path_16" d="M573.9,208.8c-6.8,0.2-13.5-1.4-19.5-4.7c-5.5-3.1-9.9-7.6-12.8-13.2c-3.1-6.2-4.7-13.1-4.5-20.1
			c-0.2-7,1.5-13.8,4.8-19.9c3.1-5.5,7.6-10,13.1-13c11.8-6.1,25.8-6.1,37.6-0.1c5.5,3,10,7.5,13.1,12.9c3.3,6.2,5,13.1,4.8,20.1
			c0.2,7-1.4,13.9-4.5,20.1c-2.9,5.5-7.3,10.1-12.7,13.1C587.4,207.4,580.7,209,573.9,208.8z M573.9,205.9c3,0.1,6-0.9,8.3-3
			c2.5-3,4.1-6.6,4.5-10.5c1.9-14.2,1.9-28.5,0-42.7c-0.4-3.9-2-7.5-4.5-10.5c-2.3-2-5.2-3.1-8.3-3c-3.1-0.1-6.1,0.9-8.3,3
			c-2.6,2.9-4.2,6.6-4.6,10.5c-1.9,14.2-1.9,28.5,0,42.7c0.4,3.9,2,7.5,4.6,10.5C567.9,204.9,570.8,206,573.9,205.9L573.9,205.9z"/>
		<path id="Path_17" d="M612.4,206.6v-1.5l2.1-0.6c3.3-0.8,5.5-3.9,5.2-7.2v-46.2c0.1-1.7-0.2-3.3-1-4.8c-1-1.2-2.4-2-4-2.1
			l-2.2-0.6v-1.5l25.2-8.6l1.5,1.5l1.2,8.9c3.5-3.1,7.4-5.6,11.7-7.5c4-1.9,8.4-2.9,12.8-3c5.5-0.4,10.9,1.6,15,5.3
			c3.8,4.5,5.7,10.3,5.2,16.2v42.6c-0.3,3.5,2.2,6.6,5.6,7.2l1.3,0.4v1.5h-34.8v-1.5l1.9-0.6c3.3-0.8,5.4-3.9,5.2-7.2v-47.1
			c0.7-4.6-2.5-8.8-7.1-9.4c-0.8-0.1-1.6-0.1-2.4,0c-5.3,0.4-10.4,2.7-14.2,6.5v50.2c-0.3,3.4,1.9,6.5,5.2,7.2l1.3,0.4v1.5
			L612.4,206.6z"/>
		<path id="Path_18" d="M355.7,15c0.9,1.4,1.4,3.1,1.3,4.9v95.8h22.7c0-1,0-2.1,0-3.1c-0.1-3.9-0.1-26.9-0.1-30.9V27.3l0.6-22.3
			l-1.9-1.4l-29.1,6.8v1.6l2.1,0.5C353,12.8,354.6,13.7,355.7,15z"/>
	</g>
</g>
</svg>
