<svg xmlns="http://www.w3.org/2000/svg" width="331.264" height="203.568" viewBox="0 0 331.264 203.568">
  <g id="Group_56386" data-name="Group 56386" transform="translate(22109.24 -630.731)" opacity="0.252">
    <path id="Subtraction_12" data-name="Subtraction 12" d="M87.528,199.328A99.272,99.272,0,0,1,21.45,174.247a84.167,84.167,0,0,0,9.016-14.291,82.926,82.926,0,0,0,6.008-16.047A67.869,67.869,0,0,0,59,160.931a67.641,67.641,0,0,0,65.337-4.586,67.7,67.7,0,0,0,24.5-28.221h34.232a99.568,99.568,0,0,1-95.541,71.2ZM24.447,75.428l0,0A84.276,84.276,0,0,0,13.422,62.46,84.116,84.116,0,0,0,0,51.972a100.145,100.145,0,0,1,35.942-37.6,99.723,99.723,0,0,1,147.5,58.119H149.42A67.606,67.606,0,0,0,24.448,75.425Z" transform="translate(-21988.57 634.471)" fill="#a77ec2" stroke="rgba(0,0,0,0)" stroke-width="1"/>
    <path id="Subtraction_13" data-name="Subtraction 13" d="M113.249,50.334H0V26.1A26.1,26.1,0,0,1,26.1,0h87.152L104.3,24.768l8.946,25.564Zm-31.3-17.475a1.173,1.173,0,0,0-.606.154,1.213,1.213,0,0,0-.436.426l-.985,1.548a4.709,4.709,0,0,0,.914.823,6.4,6.4,0,0,0,1.187.662,8.759,8.759,0,0,0,1.412.435,7.367,7.367,0,0,0,1.555.154,8.3,8.3,0,0,0,2.872-.48,6.888,6.888,0,0,0,2.191-1.322A5.791,5.791,0,0,0,91.93,31a3.7,3.7,0,0,0-.288-1.558,3.569,3.569,0,0,0-.751-1.113,4.22,4.22,0,0,0-1.053-.779,12.194,12.194,0,0,0-1.221-.58c-.485-.2-.871-.354-1.214-.48A6.5,6.5,0,0,1,86.345,26a2.71,2.71,0,0,1-.751-.616,1.32,1.32,0,0,1-.282-.86A1.81,1.81,0,0,1,86,23.069a3.023,3.023,0,0,1,1.993-.588,4.016,4.016,0,0,1,1.212.163,6.966,6.966,0,0,1,.888.371c.194.1.373.2.53.286l.156.085a1.182,1.182,0,0,0,.572.164.876.876,0,0,0,.433-.1,1.555,1.555,0,0,0,.346-.371l1.05-1.484a6.962,6.962,0,0,0-2.1-1.413,7.049,7.049,0,0,0-2.852-.551,7.389,7.389,0,0,0-2.778.5A6.12,6.12,0,0,0,83.4,21.44a5.615,5.615,0,0,0-1.261,1.873A5.918,5.918,0,0,0,81.72,25.5,4.016,4.016,0,0,0,82,27.09a3.307,3.307,0,0,0,.749,1.1,4.3,4.3,0,0,0,1.053.742,11.874,11.874,0,0,0,1.2.526c.279.111.561.211.833.308l.379.136a6.365,6.365,0,0,1,1.063.47,2.634,2.634,0,0,1,.75.643,1.506,1.506,0,0,1,.279.933,2.221,2.221,0,0,1-.179.878,2.017,2.017,0,0,1-.543.724,2.466,2.466,0,0,1-.869.489,3.468,3.468,0,0,1-1.2.18,4.01,4.01,0,0,1-1.376-.207,5.056,5.056,0,0,1-.914-.472c-.264-.178-.48-.332-.661-.47A.962.962,0,0,0,81.953,32.858Zm-20.6-13.212a10.926,10.926,0,0,0-3.007.417A10.74,10.74,0,0,0,55.7,21.249a10.615,10.615,0,0,0-2.22,1.811,11.651,11.651,0,0,0-1.684,2.309,11.655,11.655,0,0,0-1.458,5.65,8.851,8.851,0,0,0,.353,2.645,5.549,5.549,0,0,0,.968,1.874,4.075,4.075,0,0,0,1.458,1.131,4.189,4.189,0,0,0,1.783.371,5.187,5.187,0,0,0,3.081-1.005,10.141,10.141,0,0,0,2.518-2.761l-.129,2.3a1.3,1.3,0,0,0,.3.878A1.328,1.328,0,0,0,61.7,36.8h2.147l2.037-16.39a10.026,10.026,0,0,0-2.246-.6A16.092,16.092,0,0,0,61.354,19.647Zm-18.095.018a8.066,8.066,0,0,0-4.744,1.5,8.91,8.91,0,0,0-1.79,1.675,10.928,10.928,0,0,0-1.342,2.127,12.306,12.306,0,0,0-.823,2.436,11.44,11.44,0,0,0-.29,2.617,8.417,8.417,0,0,0,.469,2.9,6.327,6.327,0,0,0,1.322,2.2,5.885,5.885,0,0,0,2.067,1.422,6.891,6.891,0,0,0,2.679.5,11.093,11.093,0,0,0,2.13-.189,8.079,8.079,0,0,0,1.848-.616,9.59,9.59,0,0,0,1.71-1.05A15.813,15.813,0,0,0,48.2,33.664l-1.039-1.251a.789.789,0,0,0-.327-.271,1.039,1.039,0,0,0-.4-.092,1.275,1.275,0,0,0-.606.145,4.424,4.424,0,0,0-.572.336c-.137.092-.283.2-.438.309l-.187.134a4.479,4.479,0,0,1-.751.443,5.436,5.436,0,0,1-2.271.48c-2.241,0-3.378-1.34-3.378-3.984V29.7a32.011,32.011,0,0,0,5.1-.852,11.408,11.408,0,0,0,3.18-1.277,4.189,4.189,0,0,0,1.62-1.675,4.8,4.8,0,0,0,.452-2.083,3.477,3.477,0,0,0-.334-1.449,3.987,3.987,0,0,0-.989-1.339,5.389,5.389,0,0,0-1.665-.979A6.543,6.543,0,0,0,43.26,19.664Zm27.077.217L68.271,36.8h3.993l.89-7.4a11.515,11.515,0,0,1,1.808-4.383,3.228,3.228,0,0,1,2.574-1.394,4,4,0,0,1,1.566.343l.735-3.892a3.578,3.578,0,0,0-1.36-.29,3.874,3.874,0,0,0-2.571,1.087,10.487,10.487,0,0,0-2.274,3.078q.013-.34.025-.632c.018-.438.032-.782.038-1.06.009-.328.021-.582.03-.767l.005-.111c.01-.182.01-.317.01-.39a.934.934,0,0,0-.373-.841,1.634,1.634,0,0,0-.979-.263H70.337Zm-52.476-6.91,6.2,14.533L22.9,36.8h4.283l1.152-9.272,9.769-14.552H34.569a1.4,1.4,0,0,0-.914.3,2.452,2.452,0,0,0-.6.679l-5.124,8.231c-.229.368-.454.75-.689,1.168-.2.374-.387.739-.568,1.1-.056-.309-.132-.67-.238-1.1a9.023,9.023,0,0,0-.373-1.168l-3.076-8.231a1.813,1.813,0,0,0-.461-.707,1.229,1.229,0,0,0-.86-.272Zm38.63,20.745a1.752,1.752,0,0,1-1.53-.823,4.775,4.775,0,0,1-.562-2.608,9.037,9.037,0,0,1,.491-2.97,8.084,8.084,0,0,1,1.338-2.472,6.623,6.623,0,0,1,2.027-1.685,5.348,5.348,0,0,1,2.538-.633,6.907,6.907,0,0,1,.825.053l-.646,5.108a17.851,17.851,0,0,1-.85,2.373,11.248,11.248,0,0,1-1.078,1.919,5.164,5.164,0,0,1-1.223,1.277A2.285,2.285,0,0,1,56.491,33.717ZM38.569,27.1v0a8.521,8.521,0,0,1,.671-1.854,5.754,5.754,0,0,1,.988-1.458,4.113,4.113,0,0,1,1.277-.951,3.46,3.46,0,0,1,1.53-.336,2.386,2.386,0,0,1,.86.136,1.74,1.74,0,0,1,.581.353,1.347,1.347,0,0,1,.324.461,1.375,1.375,0,0,1,.109.516,2.1,2.1,0,0,1-.219.952,2.234,2.234,0,0,1-.9.841,8.218,8.218,0,0,1-1.928.724,27.845,27.845,0,0,1-3.287.616Z" transform="translate(-21891.938 709.613)" fill="#a77ec2" stroke="rgba(0,0,0,0)" stroke-width="1"/>
    <path id="Path_76221" data-name="Path 76221" d="M300.732,183.607h45.875s-13.277,21.731-33.552,28.948c0,0-11-12.866-12.323-28.948" transform="translate(-22192.02 580.192)" fill="#a77ec2"/>
    <path id="Path_76227" data-name="Path 76227" d="M76.185,203.068a76.229,76.229,0,0,0,30.243-146.2l0-.019L160.255,0H18.487V28.566h73.7L44.232,75.822l9.607,8.613a47.817,47.817,0,0,1,30.955-4.742c.286.052.567.117.852.174l2.8.647a47.93,47.93,0,1,1-60.161,47.876H0a76.208,76.208,0,0,0,76.185,74.679" transform="translate(-22109.24 630.731)" fill="#a77ec2"/>
  </g>
</svg>
