<svg xmlns="http://www.w3.org/2000/svg" xmlns:xlink="http://www.w3.org/1999/xlink" width="166.022" height="214" viewBox="0 0 166.022 214">
  <defs>
    <linearGradient id="linear-gradient" x1="0.109" x2="0.656" y2="1" gradientUnits="objectBoundingBox">
      <stop offset="0" stop-color="#f5d47b"/>
      <stop offset="1" stop-color="#f5e2a2" stop-opacity="0"/>
    </linearGradient>
    <linearGradient id="linear-gradient-2" x1="0.5" x2="0.5" y2="1" gradientUnits="objectBoundingBox">
      <stop offset="0" stop-color="#b77fcc"/>
      <stop offset="1" stop-color="#652e7b"/>
    </linearGradient>
    <linearGradient id="linear-gradient-4" x1="0.843" x2="0.828" y2="0.964" gradientUnits="objectBoundingBox">
      <stop offset="0" stop-color="#c18fd5"/>
      <stop offset="1" stop-color="#7f4197"/>
    </linearGradient>
    <linearGradient id="linear-gradient-5" x1="0.17" x2="1.408" y2="0.81" gradientUnits="objectBoundingBox">
      <stop offset="0" stop-color="#f5d47b"/>
      <stop offset="1" stop-color="#7f4197"/>
    </linearGradient>
    <linearGradient id="linear-gradient-6" x1="1" y1="0.174" x2="0.5" y2="1" gradientUnits="objectBoundingBox">
      <stop offset="0" stop-color="#ab80c7"/>
      <stop offset="1" stop-color="#a77ec2"/>
    </linearGradient>
    <linearGradient id="linear-gradient-7" x1="0.91" y1="0.937" x2="-0.096" y2="0.611" gradientUnits="objectBoundingBox">
      <stop offset="0" stop-color="#ab80c7"/>
      <stop offset="1" stop-color="#7f4197"/>
    </linearGradient>
    <clipPath id="clip-path">
      <rect id="Rectangle_1091" data-name="Rectangle 1091" width="41" height="41" transform="translate(0.352 -0.331)" fill="#9863b9"/>
    </clipPath>
    <linearGradient id="linear-gradient-8" x1="0.933" y1="-0.514" x2="-0.053" y2="1.048" gradientUnits="objectBoundingBox">
      <stop offset="0" stop-color="#a66fc4"/>
      <stop offset="1" stop-color="#7f4197"/>
    </linearGradient>
    <linearGradient id="linear-gradient-9" x1="0.846" y1="0.063" x2="-0.074" y2="1.044" xlink:href="#linear-gradient-5"/>
    <clipPath id="clip-path-2">
      <rect id="Rectangle_1100" data-name="Rectangle 1100" width="27.581" height="29.698" fill="none" stroke="#707070" stroke-width="1"/>
    </clipPath>
    <clipPath id="clip-path-3">
      <rect id="Rectangle_1112" data-name="Rectangle 1112" width="49" height="49" transform="translate(0 0)" fill="#ba89ce"/>
    </clipPath>
  </defs>
  <g id="Group_1792" data-name="Group 1792" transform="translate(-1200 -2580)">
    <g id="Group_1783" data-name="Group 1783" transform="translate(30 -31.552)">
      <path id="Path_76004" data-name="Path 76004" d="M-23224.594,5478.631s19.033.97,21.564,21.563c.027.048,17.5,0,17.5,0s-1.111-37.461-39.061-39.393Z" transform="translate(24517.246 -2716.052)" fill="url(#linear-gradient)"/>
      <path id="Path_76008" data-name="Path 76008" d="M-23185.533,5478.632s-19.031.97-21.564,21.563c-.027.047-17.5,0-17.5,0s1.111-37.462,39.061-39.393Z" transform="translate(24480.146 -2675.278)" fill="url(#linear-gradient-2)"/>
      <path id="Path_76052" data-name="Path 76052" d="M-23185.533,5478.632s-19.031.97-21.564,21.563c-.027.047-17.5,0-17.5,0s1.111-37.462,39.061-39.393Z" transform="translate(24521.555 -2798.333)" fill="url(#linear-gradient-2)"/>
      <path id="Path_76005" data-name="Path 76005" d="M-23130.725,5385.414V5346l-39.414,39.413Z" transform="translate(24423.379 -2601.25)" fill="url(#linear-gradient-4)"/>
      <path id="Path_76007" data-name="Path 76007" d="M-23128.75,5346v41.389l-41.389-41.389Z" transform="translate(24381.99 -2561.837)" opacity="0.8" fill="url(#linear-gradient-5)"/>
      <path id="Path_76006" data-name="Path 76006" d="M-23128.75,5387.39V5346l-41.389,41.389Z" transform="translate(24340.139 -2561.837)" fill="url(#linear-gradient-6)"/>
      <path id="Path_76053" data-name="Path 76053" d="M-23170.139,5387.39V5346l41.389,41.389Z" transform="translate(24423.148 -2644.965)" fill="url(#linear-gradient-7)"/>
      <g id="Mask_Group_156" data-name="Mask Group 156" transform="translate(1293.669 2701.883)" clip-path="url(#clip-path)">
        <g id="Group_1716" data-name="Group 1716" transform="translate(3.127 1.694)">
          <ellipse id="Ellipse_76" data-name="Ellipse 76" cx="1" cy="2" rx="1" ry="2" transform="translate(34.225 32.975)" fill="#7e3f98"/>
          <ellipse id="Ellipse_79" data-name="Ellipse 79" cx="1.5" cy="2" rx="1.5" ry="2" transform="translate(17.225 32.975)" fill="#7e3f98"/>
          <ellipse id="Ellipse_77" data-name="Ellipse 77" cx="1.725" cy="1.725" rx="1.725" ry="1.725" transform="translate(25.277 33.876)" fill="#7e3f98"/>
          <ellipse id="Ellipse_78" data-name="Ellipse 78" cx="1.725" cy="1.725" rx="1.725" ry="1.725" transform="translate(8.426 33.876)" fill="#7e3f98"/>
          <ellipse id="Ellipse_80" data-name="Ellipse 80" cx="1.5" cy="2" rx="1.5" ry="2" transform="translate(0.225 32.975)" fill="#7e3f98"/>
          <ellipse id="Ellipse_76-2" data-name="Ellipse 76" cx="1" cy="2" rx="1" ry="2" transform="translate(34.225 16.975)" fill="#7e3f98"/>
          <ellipse id="Ellipse_79-2" data-name="Ellipse 79" cx="1.5" cy="2" rx="1.5" ry="2" transform="translate(17.225 16.975)" fill="#7e3f98"/>
          <ellipse id="Ellipse_77-2" data-name="Ellipse 77" cx="1.725" cy="1.725" rx="1.725" ry="1.725" transform="translate(25.277 17.025)" fill="#7e3f98"/>
          <ellipse id="Ellipse_78-2" data-name="Ellipse 78" cx="1.725" cy="1.725" rx="1.725" ry="1.725" transform="translate(8.426 17.025)" fill="#7e3f98"/>
          <ellipse id="Ellipse_80-2" data-name="Ellipse 80" cx="1.5" cy="2" rx="1.5" ry="2" transform="translate(0.225 16.975)" fill="#7e3f98"/>
          <ellipse id="Ellipse_76-3" data-name="Ellipse 76" cx="1.725" cy="1.725" rx="1.725" ry="1.725" transform="translate(33.703 25.45)" fill="#7e3f98"/>
          <ellipse id="Ellipse_79-3" data-name="Ellipse 79" cx="1.725" cy="1.725" rx="1.725" ry="1.725" transform="translate(16.852 25.45)" fill="#7e3f98"/>
          <ellipse id="Ellipse_77-3" data-name="Ellipse 77" cx="1.725" cy="1.725" rx="1.725" ry="1.725" transform="translate(25.277 25.45)" fill="#7e3f98"/>
          <ellipse id="Ellipse_78-3" data-name="Ellipse 78" cx="1.725" cy="1.725" rx="1.725" ry="1.725" transform="translate(8.426 25.45)" fill="#7e3f98"/>
          <ellipse id="Ellipse_80-3" data-name="Ellipse 80" cx="1.725" cy="1.725" rx="1.725" ry="1.725" transform="translate(0 25.45)" fill="#7e3f98"/>
          <ellipse id="Ellipse_76-4" data-name="Ellipse 76" cx="1.725" cy="1.725" rx="1.725" ry="1.725" transform="translate(33.703 8.599)" fill="#7e3f98"/>
          <ellipse id="Ellipse_79-4" data-name="Ellipse 79" cx="1.725" cy="1.725" rx="1.725" ry="1.725" transform="translate(16.852 8.599)" fill="#7e3f98"/>
          <ellipse id="Ellipse_77-4" data-name="Ellipse 77" cx="1.725" cy="1.725" rx="1.725" ry="1.725" transform="translate(25.277 8.599)" fill="#7e3f98"/>
          <ellipse id="Ellipse_78-4" data-name="Ellipse 78" cx="1.725" cy="1.725" rx="1.725" ry="1.725" transform="translate(8.426 8.599)" fill="#7e3f98"/>
          <ellipse id="Ellipse_80-4" data-name="Ellipse 80" cx="1.725" cy="1.725" rx="1.725" ry="1.725" transform="translate(0 8.599)" fill="#7e3f98"/>
          <ellipse id="Ellipse_76-5" data-name="Ellipse 76" cx="1" cy="1.5" rx="1" ry="1.5" transform="translate(34.225 -0.025)" fill="#7e3f98"/>
          <circle id="Ellipse_79-5" data-name="Ellipse 79" cx="1.5" cy="1.5" r="1.5" transform="translate(17.225 -0.025)" fill="#7e3f98"/>
          <ellipse id="Ellipse_77-5" data-name="Ellipse 77" cx="1.725" cy="1.725" rx="1.725" ry="1.725" transform="translate(25.277 0.174)" fill="#7e3f98"/>
          <ellipse id="Ellipse_78-5" data-name="Ellipse 78" cx="1.725" cy="1.725" rx="1.725" ry="1.725" transform="translate(8.426 0.174)" fill="#7e3f98"/>
          <circle id="Ellipse_80-5" data-name="Ellipse 80" cx="1.5" cy="1.5" r="1.5" transform="translate(0.225 -0.025)" fill="#7e3f98"/>
        </g>
      </g>
      <g id="Group_1779" data-name="Group 1779" transform="translate(1212.352 2742.541)">
        <g id="Group_1782" data-name="Group 1782">
          <rect id="Rectangle_1089" data-name="Rectangle 1089" width="41" height="41" transform="translate(-0.33 0.011)" fill="url(#linear-gradient-8)"/>
          <g id="Group_1757" data-name="Group 1757" transform="translate(8.088 5.749)">
            <g id="Group_1755" data-name="Group 1755" transform="translate(0 0)">
              <g id="Group_1756" data-name="Group 1756" transform="translate(0)">
                <path id="Path_76022" data-name="Path 76022" d="M30.72,76.759l3.893-4.021a1.867,1.867,0,0,1,2.157,0,1.676,1.676,0,0,1,.365,2.066c-.493,1.023-5.081,6.05-5.081,6.05a5.053,5.053,0,0,1-3.6,1.371c-2.321-.018-6.745,0-6.745,0A4.254,4.254,0,0,0,19.314,83.8l-4.988-5.117.071-.2s2.523-4.825,8.545-2.924l6.224.018a1.773,1.773,0,0,1,1.554,1.791,1.6,1.6,0,0,1-1.389,1.627H23.18" transform="translate(-11.341 -55.884)" fill="none" stroke="#d5c3df" stroke-width="1"/>
                <path id="Path_76023" data-name="Path 76023" d="M10.165,103.26h0a3.54,3.54,0,0,1-5.006.09L1.5,99.821l2.458-2.548Z" transform="translate(-1.5 -74.986)" fill="none" stroke="#d5c3df" stroke-linejoin="round" stroke-width="1"/>
                <path id="Path_76024" data-name="Path 76024" d="M33.972,12.145a8.961,8.961,0,1,1-7.12-10.484A8.961,8.961,0,0,1,33.972,12.145Z" transform="translate(-12.785 -1.5)" fill="none" stroke="#d5c3df" stroke-width="1"/>
                <path id="Path_76025" data-name="Path 76025" d="M61.605,12.5a2.569,2.569,0,0,0-1.918,1.66c-.446,1.413.56,1.914-1.056,1.605s-3.673,0-2.967,1.416.134,1.877,1.251,2.487,1.733,1.08,1.564,2.194,1.144,2.775,1.945,2.046,1.09-3.626,1.2-4.178l.106-.553h0c.274-.741-.666-.436-.732-1.242s2.324.06,2.519.884.756.8.756.8" transform="translate(-42.951 -9.938)" fill="none" stroke="#d5c3df" stroke-width="1"/>
                <path id="Path_76026" data-name="Path 76026" d="M34.891,2.192A1.96,1.96,0,0,1,32.8,4.152c-2.063-.042-2.059-.526-3.076.646s-3.046.055-3.046.055" transform="translate(-20.823 -2.031)" fill="none" stroke="#d5c3df" stroke-width="1"/>
                <path id="Path_76027" data-name="Path 76027" d="M20.094,24.162s1.482,1.033.921,2.358-1.457,2.388-1.034,2.909c0,0,.215.479,1.254.239s1.759-.291,1.95.568-.732,3.343-.242,3.9a.821.821,0,0,1-.031,1.108" transform="translate(-15.596 -18.888)" fill="none" stroke="#d5c3df" stroke-width="1"/>
              </g>
            </g>
          </g>
        </g>
      </g>
      <g id="Group_1761" data-name="Group 1761" transform="translate(1294.516 2700.189)">
        <rect id="Rectangle_1092" data-name="Rectangle 1092" width="42" height="42" transform="translate(-0.494 0.363)" opacity="0.8" fill="url(#linear-gradient-9)"/>
        <g id="Group_1760" data-name="Group 1760" transform="translate(7.433 6.798)">
          <g id="Group_1759" data-name="Group 1759">
            <g id="Group_1758" data-name="Group 1758" clip-path="url(#clip-path-2)">
              <path id="Path_76028" data-name="Path 76028" d="M57.242,34.591a8.979,8.979,0,1,0-15.194,6.475,3.456,3.456,0,0,1,1.03,2.5v3.645a1.951,1.951,0,0,0,1.951,1.951h6.419A1.951,1.951,0,0,0,53.4,47.212v-3.68a3.447,3.447,0,0,1,1.091-2.475A8.947,8.947,0,0,0,57.242,34.591Z" transform="translate(-34.59 -22.551)" fill="none" stroke="#fff" stroke-width="1"/>
              <path id="Path_76029" data-name="Path 76029" d="M97.036,222.644a2.728,2.728,0,1,1-5.456,0Z" transform="translate(-80.634 -196.033)" fill="none" stroke="#fff" stroke-width="1"/>
              <line id="Line_53" data-name="Line 53" x2="10.321" transform="translate(8.488 24.357)" fill="none" stroke="#fff" stroke-width="1"/>
              <line id="Line_54" data-name="Line 54" x2="10.321" transform="translate(8.488 22.443)" fill="none" stroke="#fff" stroke-width="1"/>
              <line id="Line_55" data-name="Line 55" y1="1.781" transform="translate(13.47 0.089)" fill="none" stroke="#fff" stroke-width="1"/>
              <line id="Line_56" data-name="Line 56" y1="0.912" x2="1.53" transform="translate(22.417 5.859)" fill="none" stroke="#fff" stroke-width="1"/>
              <line id="Line_57" data-name="Line 57" x2="1.554" y2="0.87" transform="translate(22.768 17.076)" fill="none" stroke="#fff" stroke-width="1"/>
              <line id="Line_58" data-name="Line 58" x1="1.57" y2="0.841" transform="translate(3.061 17.336)" fill="none" stroke="#fff" stroke-width="1"/>
              <line id="Line_59" data-name="Line 59" x1="1.526" y1="0.918" transform="translate(3.201 6.217)" fill="none" stroke="#fff" stroke-width="1"/>
              <line id="Line_60" data-name="Line 60" x1="3.201" transform="translate(0 12.199)" fill="none" stroke="#fff" stroke-width="1"/>
              <line id="Line_61" data-name="Line 61" x1="1.68" y1="2.956" transform="translate(6.659 0.219)" fill="none" stroke="#fff" stroke-width="1"/>
              <line id="Line_62" data-name="Line 62" y1="2.812" x2="1.529" transform="translate(18.702 0.171)" fill="none" stroke="#fff" stroke-width="1"/>
              <line id="Line_63" data-name="Line 63" y1="0.064" x2="3.4" transform="translate(24.174 11.744)" fill="none" stroke="#fff" stroke-width="1"/>
              <path id="Path_76030" data-name="Path 76030" d="M78.365,62.876h-.638a.689.689,0,0,1-.637-.425l-.007-.016a.663.663,0,0,1,.144-.723l.464-.464a.321.321,0,0,0,0-.454l-1.326-1.325a.321.321,0,0,0-.454,0l-.463.464a.664.664,0,0,1-.724.143l-.032-.013a.664.664,0,0,1-.409-.613v-.656a.321.321,0,0,0-.321-.321H72.087a.321.321,0,0,0-.321.321v.638a.689.689,0,0,1-.425.637h0a.69.69,0,0,1-.752-.149l-.451-.451a.321.321,0,0,0-.454,0l-1.326,1.325a.321.321,0,0,0,0,.454l.451.451a.69.69,0,0,1-.487,1.177h-.638a.321.321,0,0,0-.321.321v1.874a.321.321,0,0,0,.321.321h.656a.663.663,0,0,1,.613.409l.013.032a.663.663,0,0,1-.144.723l-.464.464a.321.321,0,0,0,0,.454l1.33,1.33a.324.324,0,0,0,.445,0l.456-.456a.689.689,0,0,1,.752-.149l.016.007a.664.664,0,0,1,.409.613v.656a.321.321,0,0,0,.321.321h1.874a.321.321,0,0,0,.321-.321v-.638a.69.69,0,0,1,1.177-.487l.456.456a.314.314,0,0,0,.445,0l1.33-1.33a.321.321,0,0,0,0-.454l-.463-.464a.664.664,0,0,1-.144-.723l.007-.016a.689.689,0,0,1,.637-.425h.639a.321.321,0,0,0,.321-.321V63.2A.321.321,0,0,0,78.365,62.876Z" transform="translate(-59.311 -51.483)" fill="none" stroke="#fff" stroke-width="1"/>
              <circle id="Ellipse_106" data-name="Ellipse 106" cx="1.859" cy="1.859" r="1.859" transform="translate(11.854 10.792)" fill="none" stroke="#fff" stroke-width="1"/>
            </g>
          </g>
        </g>
      </g>
      <g id="Group_1780" data-name="Group 1780" transform="translate(1294.516 2784.047)">
        <rect id="Rectangle_1088" data-name="Rectangle 1088" width="42" height="42" transform="translate(-0.494 -0.495)" fill="#9863b9"/>
        <g id="Group_1774" data-name="Group 1774" transform="translate(6.641 8.522)">
          <g id="Group_1781" data-name="Group 1781" transform="translate(0 0)">
            <path id="Path_76043" data-name="Path 76043" d="M27.078,11.131H24.349a10.593,10.593,0,0,0-.835-2.011l1.931-1.931a.76.76,0,0,0,0-1.074L22.222,2.893a.76.76,0,0,0-1.074,0L19.218,4.824a10.535,10.535,0,0,0-2.012-.836V1.259A.759.759,0,0,0,16.447.5H11.891a.759.759,0,0,0-.759.759V3.988a10.531,10.531,0,0,0-2.011.836L7.189,2.893a.76.76,0,0,0-1.074,0L2.892,6.115a.76.76,0,0,0,0,1.074L4.824,9.12a10.569,10.569,0,0,0-.836,2.011H1.259a.759.759,0,0,0-.759.759v4.556a.759.759,0,0,0,.759.759H3.988a10.6,10.6,0,0,0,.835,2.012L2.892,21.149a.76.76,0,0,0,0,1.074l3.223,3.223a.781.781,0,0,0,1.074,0L9.12,23.513a10.569,10.569,0,0,0,2.011.836v2.729a.759.759,0,0,0,.759.759h4.556a.759.759,0,0,0,.759-.759V24.349a10.6,10.6,0,0,0,2.012-.835l1.931,1.931a.759.759,0,0,0,1.074,0l3.222-3.223a.759.759,0,0,0,0-1.074l-1.931-1.931a10.573,10.573,0,0,0,.836-2.012h2.729a.759.759,0,0,0,.759-.759V11.891A.759.759,0,0,0,27.078,11.131Z" transform="translate(-0.5 -0.5)" fill="none" stroke="#d5c3df" stroke-width="1"/>
            <path id="Path_76044" data-name="Path 76044" d="M30.022,21.585a8.437,8.437,0,1,1-8.437-8.437A8.437,8.437,0,0,1,30.022,21.585Z" transform="translate(-7.917 -7.917)" fill="none" stroke="#d5c3df" stroke-width="1"/>
            <path id="Path_76045" data-name="Path 76045" d="M24.725,26.5a1.741,1.741,0,0,0,.634-.1l1.827-.644a1.38,1.38,0,0,1,1.2.076" transform="translate(-14.705 -15.25)" fill="none" stroke="#d5c3df" stroke-width="1"/>
            <line id="Line_67" data-name="Line 67" x1="0.955" y1="0.608" transform="translate(8.51 15.212)" fill="none" stroke="#d5c3df" stroke-width="1"/>
            <path id="Path_76046" data-name="Path 76046" d="M33.6,26.6h0l-2.3-.783a2.249,2.249,0,0,0-1.444-.009c-.064.022-.13.045-.2.072a4.12,4.12,0,0,0-1.227.72,10.747,10.747,0,0,1-1.32,1.012.267.267,0,0,0-.112.318c.155.422.663,1.21,2.128-.077.855-.457,2.009,0,2.964.855a21.365,21.365,0,0,1,2.04,2.3.51.51,0,0,1-.054.689l-.308.288a.512.512,0,0,1-.619.062l-.084-.053.038.053a.631.631,0,0,1-.058.8l-.1.105a.632.632,0,0,1-.764.116l-.11-.061-.272.422a.632.632,0,0,1-.809.225l-.022-.011-.172.259a.55.55,0,0,1-.743.244" transform="translate(-16.029 -15.273)" fill="none" stroke="#d5c3df" stroke-width="1"/>
            <path id="Path_76047" data-name="Path 76047" d="M19.076,30.8l-1.142-.429a.033.033,0,0,1-.019-.042L19.7,25.57a.032.032,0,0,1,.042-.019l1.142.428a.032.032,0,0,1,.019.042l-1.786,4.761A.032.032,0,0,1,19.076,30.8Z" transform="translate(-10.711 -15.188)" fill="none" stroke="#d5c3df" stroke-width="1"/>
            <rect id="Rectangle_1106" data-name="Rectangle 1106" width="1.277" height="4.954" rx="0.516" transform="matrix(0.929, -0.371, 0.371, 0.929, 17.361, 10.91)" fill="none" stroke="#d5c3df" stroke-width="1"/>
            <line id="Line_68" data-name="Line 68" y1="0.512" x2="1.076" transform="translate(18.048 15.153)" fill="none" stroke="#d5c3df" stroke-width="1"/>
            <path id="Path_76048" data-name="Path 76048" d="M25.1,36.292l-.723,1.133a.676.676,0,1,1-1.14-.728l.723-1.133a.676.676,0,1,1,1.14.728Z" transform="translate(-13.767 -20.878)" fill="none" stroke="#d5c3df" stroke-width="1"/>
            <path id="Path_76049" data-name="Path 76049" d="M30.409,40.622l-.583.913a.676.676,0,1,1-1.14-.728l.583-.913a.676.676,0,1,1,1.14.728Z" transform="translate(-16.966 -23.417)" fill="none" stroke="#d5c3df" stroke-width="1"/>
            <path id="Path_76050" data-name="Path 76050" d="M33.5,42.118l-.589.922a.67.67,0,0,1-1.13-.721l.589-.923a.671.671,0,0,1,1.13.722Z" transform="translate(-18.783 -24.299)" fill="none" stroke="#d5c3df" stroke-width="1"/>
            <path id="Path_76051" data-name="Path 76051" d="M28.02,37.751,27.2,39.029a.676.676,0,0,1-1.14-.728l.816-1.278a.676.676,0,1,1,1.14.728Z" transform="translate(-15.428 -21.733)" fill="none" stroke="#d5c3df" stroke-width="1"/>
            <line id="Line_69" data-name="Line 69" x1="1.002" y1="0.888" transform="translate(16.071 15.882)" fill="none" stroke="#d5c3df" stroke-width="1"/>
            <line id="Line_70" data-name="Line 70" x1="0.881" y1="0.833" transform="translate(15.16 16.898)" fill="none" stroke="#d5c3df" stroke-width="1"/>
          </g>
        </g>
      </g>
    </g>
    <g id="Mask_Group_161" data-name="Mask Group 161" transform="translate(1317 2580)" clip-path="url(#clip-path-3)">
      <g id="Group_1791" data-name="Group 1791" transform="translate(3.823 2.93)">
        <ellipse id="Ellipse_107" data-name="Ellipse 107" cx="2" cy="1.5" rx="2" ry="1.5" transform="translate(39.178 40.07)" fill="#ba89ce"/>
        <ellipse id="Ellipse_108" data-name="Ellipse 108" cx="2" cy="1.5" rx="2" ry="1.5" transform="translate(20.178 40.07)" fill="#ba89ce"/>
        <ellipse id="Ellipse_109" data-name="Ellipse 109" cx="2.036" cy="2.036" rx="2.036" ry="2.036" transform="translate(29.841 39.787)" fill="#ba89ce"/>
        <ellipse id="Ellipse_110" data-name="Ellipse 110" cx="2.036" cy="2.036" rx="2.036" ry="2.036" transform="translate(9.947 39.787)" fill="#ba89ce"/>
        <ellipse id="Ellipse_111" data-name="Ellipse 111" cx="2" cy="1.5" rx="2" ry="1.5" transform="translate(0.178 40.07)" fill="#ba89ce"/>
        <ellipse id="Ellipse_112" data-name="Ellipse 112" cx="2" cy="1.5" rx="2" ry="1.5" transform="translate(39.178 20.07)" fill="#ba89ce"/>
        <ellipse id="Ellipse_113" data-name="Ellipse 113" cx="2" cy="1.5" rx="2" ry="1.5" transform="translate(20.178 20.07)" fill="#ba89ce"/>
        <ellipse id="Ellipse_114" data-name="Ellipse 114" cx="2.036" cy="2.036" rx="2.036" ry="2.036" transform="translate(29.841 19.894)" fill="#ba89ce"/>
        <ellipse id="Ellipse_115" data-name="Ellipse 115" cx="2.036" cy="2.036" rx="2.036" ry="2.036" transform="translate(9.947 19.894)" fill="#ba89ce"/>
        <ellipse id="Ellipse_116" data-name="Ellipse 116" cx="2" cy="1.5" rx="2" ry="1.5" transform="translate(0.178 20.07)" fill="#ba89ce"/>
        <ellipse id="Ellipse_117" data-name="Ellipse 117" cx="2.036" cy="2.036" rx="2.036" ry="2.036" transform="translate(39.788 29.84)" fill="#ba89ce"/>
        <ellipse id="Ellipse_118" data-name="Ellipse 118" cx="2.036" cy="2.036" rx="2.036" ry="2.036" transform="translate(19.895 29.84)" fill="#ba89ce"/>
        <ellipse id="Ellipse_119" data-name="Ellipse 119" cx="2.036" cy="2.036" rx="2.036" ry="2.036" transform="translate(29.841 29.84)" fill="#ba89ce"/>
        <ellipse id="Ellipse_120" data-name="Ellipse 120" cx="2.036" cy="2.036" rx="2.036" ry="2.036" transform="translate(9.947 29.84)" fill="#ba89ce"/>
        <ellipse id="Ellipse_121" data-name="Ellipse 121" cx="2.036" cy="2.036" rx="2.036" ry="2.036" transform="translate(0 29.84)" fill="#ba89ce"/>
        <ellipse id="Ellipse_122" data-name="Ellipse 122" cx="2.036" cy="2.036" rx="2.036" ry="2.036" transform="translate(39.788 9.947)" fill="#ba89ce"/>
        <ellipse id="Ellipse_123" data-name="Ellipse 123" cx="2.036" cy="2.036" rx="2.036" ry="2.036" transform="translate(19.895 9.947)" fill="#ba89ce"/>
        <ellipse id="Ellipse_124" data-name="Ellipse 124" cx="2.036" cy="2.036" rx="2.036" ry="2.036" transform="translate(29.841 9.947)" fill="#ba89ce"/>
        <ellipse id="Ellipse_125" data-name="Ellipse 125" cx="2.036" cy="2.036" rx="2.036" ry="2.036" transform="translate(9.947 9.947)" fill="#ba89ce"/>
        <ellipse id="Ellipse_126" data-name="Ellipse 126" cx="2.036" cy="2.036" rx="2.036" ry="2.036" transform="translate(0 9.947)" fill="#ba89ce"/>
        <ellipse id="Ellipse_127" data-name="Ellipse 127" cx="2" cy="2" rx="2" ry="2" transform="translate(39.178 0.07)" fill="#ba89ce"/>
        <ellipse id="Ellipse_128" data-name="Ellipse 128" cx="2" cy="2" rx="2" ry="2" transform="translate(20.178 0.07)" fill="#ba89ce"/>
        <ellipse id="Ellipse_129" data-name="Ellipse 129" cx="2.036" cy="2.036" rx="2.036" ry="2.036" transform="translate(29.841 0)" fill="#ba89ce"/>
        <ellipse id="Ellipse_130" data-name="Ellipse 130" cx="2.036" cy="2.036" rx="2.036" ry="2.036" transform="translate(9.947 0)" fill="#ba89ce"/>
        <ellipse id="Ellipse_131" data-name="Ellipse 131" cx="2" cy="2" rx="2" ry="2" transform="translate(0.178 0.07)" fill="#ba89ce"/>
      </g>
    </g>
  </g>
</svg>
