<svg xmlns="http://www.w3.org/2000/svg" xmlns:xlink="http://www.w3.org/1999/xlink" width="1366" height="920" viewBox="0 0 1366 920">
  <defs>
    <clipPath id="clip-path">
      <rect id="Rectangle_22387" data-name="Rectangle 22387" width="1366" height="920" transform="translate(0 2086)" fill="#f5d47b"/>
    </clipPath>
  </defs>
  <g id="Mask_Group_725" data-name="Mask Group 725" transform="translate(0 -2086)" clip-path="url(#clip-path)">
    <g id="Group_56583" data-name="Group 56583">
      <rect id="Rectangle_1407" data-name="Rectangle 1407" width="1366" height="920" transform="translate(0 2086)" fill="#f5d47b"/>
      <path id="Path_76263" data-name="Path 76263" d="M-15267-1448s63.043-33.655,111.788,0c.984.657,19.148-39.853,68.212-16.013,3.623,1.3-13.7-70.458,62.889-41.336,34.722,14.681,67.6,57.349,67.6,57.349s23.636-42.158,67.514-16.013c-1.013.862,41.9-36.557,65.377,21.882-.766,3.014,0,35.737,0,35.737L-15267-1338.364Z" transform="translate(15267 4046)" fill="#e6c363"/>
      <path id="Path_76264" data-name="Path 76264" d="M-14823.623-1448s-63.043-33.655-111.788,0c-.984.657-19.148-39.853-68.212-16.013-3.623,1.3,13.7-70.458-62.889-41.336-34.722,14.681-67.6,57.349-67.6,57.349s-23.636-42.158-67.514-16.013c1.013.862-41.9-36.557-65.377,21.882.766,3.014,0,35.737,0,35.737l443.377,68.031Z" transform="translate(16189.623 4059.749)" fill="#e6c363"/>
      <path id="Path_76262" data-name="Path 76262" d="M-13841.968-1249.574c-704.384-372.775-1392.087-2.489-1398.669-.689l-52.73-222.924c19.1-5.22,325.9-87.032,757.165-87.032,221.709,0,476.233,21.6,741.633,86.343Z" transform="translate(15226.969 4158.22)" fill="#ffe6a3"/>
      <path id="Path_76262-2" data-name="Path 76262" d="M-15267-1351.944s722.284-228.02,1364.486,0" transform="translate(15267 4124)" fill="none" stroke="#d1ae4f" stroke-width="4" stroke-dasharray="14 14"/>
    </g>
  </g>
</svg>
