<svg id="Group_1697" data-name="Group 1697" xmlns="http://www.w3.org/2000/svg" xmlns:xlink="http://www.w3.org/1999/xlink" width="102" height="101.537" viewBox="0 0 102 101.537">
  <defs>
    <clipPath id="clip-path">
      <rect id="Rectangle_907" data-name="Rectangle 907" width="1.036" height="1.279" fill="none"/>
    </clipPath>
    <clipPath id="clip-path-2">
      <rect id="Rectangle_908" data-name="Rectangle 908" width="0.019" height="0.012" fill="none"/>
    </clipPath>
    <clipPath id="clip-path-3">
      <rect id="Rectangle_909" data-name="Rectangle 909" width="0.499" height="2.512" fill="none"/>
    </clipPath>
    <clipPath id="clip-path-4">
      <rect id="Rectangle_910" data-name="Rectangle 910" width="2.844" height="1.76" fill="none"/>
    </clipPath>
    <clipPath id="clip-path-5">
      <rect id="Rectangle_911" data-name="Rectangle 911" width="0.963" height="3.151" fill="none"/>
    </clipPath>
    <clipPath id="clip-path-6">
      <rect id="Rectangle_912" data-name="Rectangle 912" width="4.724" height="1.766" fill="none"/>
    </clipPath>
    <clipPath id="clip-path-7">
      <rect id="Rectangle_913" data-name="Rectangle 913" width="6.573" height="9.53" fill="none"/>
    </clipPath>
    <clipPath id="clip-path-8">
      <rect id="Rectangle_914" data-name="Rectangle 914" width="11.565" height="16.896" fill="none"/>
    </clipPath>
    <clipPath id="clip-path-9">
      <rect id="Rectangle_915" data-name="Rectangle 915" width="2.214" height="2.801" fill="none"/>
    </clipPath>
    <clipPath id="clip-path-10">
      <rect id="Rectangle_916" data-name="Rectangle 916" width="67.138" height="8.374" fill="#9863b9"/>
    </clipPath>
    <clipPath id="clip-path-11">
      <rect id="Rectangle_918" data-name="Rectangle 918" width="2.668" height="1.589" fill="none"/>
    </clipPath>
    <clipPath id="clip-path-12">
      <rect id="Rectangle_919" data-name="Rectangle 919" width="2.492" height="1.832" fill="none"/>
    </clipPath>
    <clipPath id="clip-path-13">
      <rect id="Rectangle_920" data-name="Rectangle 920" width="0.653" height="0.978" fill="none"/>
    </clipPath>
    <clipPath id="clip-path-14">
      <rect id="Rectangle_921" data-name="Rectangle 921" width="2.247" height="2.459" fill="none"/>
    </clipPath>
    <clipPath id="clip-path-15">
      <rect id="Rectangle_922" data-name="Rectangle 922" width="4.051" height="1.581" fill="none"/>
    </clipPath>
    <clipPath id="clip-path-16">
      <rect id="Rectangle_923" data-name="Rectangle 923" width="1.085" height="1.296" fill="none"/>
    </clipPath>
    <clipPath id="clip-path-17">
      <rect id="Rectangle_924" data-name="Rectangle 924" width="5.593" height="14.758" fill="#3d2148"/>
    </clipPath>
    <clipPath id="clip-path-18">
      <rect id="Rectangle_917" data-name="Rectangle 917" width="11.519" height="9.754" fill="#1b1b31"/>
    </clipPath>
  </defs>
  <ellipse id="Ellipse_59" data-name="Ellipse 59" cx="51" cy="50.5" rx="51" ry="50.5" fill="#fbebc0"/>
  <path id="Subtraction_5" data-name="Subtraction 5" d="M46.332,29.72a50.748,50.748,0,0,1-27.858-8.283,51.175,51.175,0,0,1-10.73-9.394A50.991,50.991,0,0,1,0,0H92.662a50.964,50.964,0,0,1-7.744,12.044,51.141,51.141,0,0,1-10.73,9.394A50.74,50.74,0,0,1,46.332,29.72Z" transform="translate(4.803 71.817)" fill="#d5c3df"/>
  <g id="Group_1696" data-name="Group 1696" transform="translate(17.791 13.584)">
    <g id="Group_1691" data-name="Group 1691" transform="translate(0 0)">
      <g id="Group_1688" data-name="Group 1688" transform="translate(0 0)">
        <g id="Group_1692" data-name="Group 1692">
          <path id="Path_32527" data-name="Path 32527" d="M507.512,888.421s-.427-1.086-.252-1.206a2.36,2.36,0,0,1,1.161-.282.708.708,0,0,0,.425-.16,4.514,4.514,0,0,1,1.392-.549c.4-.09.488.916.368,1.1a1.875,1.875,0,0,1-1,.484,2.152,2.152,0,0,0-1.062.319,5.81,5.81,0,0,1-1.036.289" transform="translate(-484.535 -846.025)" fill="#efaea6"/>
          <path id="Path_32528" data-name="Path 32528" d="M249.485,796.771l-1.244-.348a16.377,16.377,0,0,1,.685-2.268,2.212,2.212,0,0,1,.787-1.071l.418,1.17-.026.1a4.346,4.346,0,0,0,.077,1.424,3,3,0,0,0,.311,1.023c.2.292-1.008-.029-1.008-.029" transform="translate(-237.192 -757.076)" fill="#efaea6"/>
          <g id="Group_1635" data-name="Group 1635" transform="translate(11.896 37.291)" opacity="0.14">
            <g id="Group_1634" data-name="Group 1634">
              <g id="Group_1633" data-name="Group 1633" clip-path="url(#clip-path)">
                <path id="Path_32529" data-name="Path 32529" d="M268.1,821.8a4.473,4.473,0,0,0,.028,1c-.772.352-1.182-.525-.988-.743a5.647,5.647,0,0,1,.566-.454Z" transform="translate(-267.098 -821.605)" fill="#1f1f3b"/>
              </g>
            </g>
          </g>
          <path id="Path_32530" data-name="Path 32530" d="M264.924,788.76c.049,1.091.454,1.277.083,1.3-.286.019.073.928-.232.935a1.727,1.727,0,0,1-1.578-.852,7.621,7.621,0,0,1-.025-1.414Z" transform="translate(-251.43 -752.916)" fill="#efaea6"/>
          <path id="Path_32531" data-name="Path 32531" d="M246.963,766.308c.233.031.239.089.4.008s-.115-.319.191-.368.64-.066.677-.429c.053-.526-.4-.449-.672-.391-.178.037-.217-.366-.573-.353-.279.011-.249.181-.5.2-.15.013-.44-.248-.676-.062-.439.345-.082.778-.448,1.148-.427.431.536,1.369.651,1.258.134-.13-.055-.583.08-.687.2-.157.226.022.393.19s.511.193.3-.151-.041-.392.17-.364" transform="translate(-234.344 -730.037)" fill="#1f1f3b"/>
          <path id="Path_32532" data-name="Path 32532" d="M317.7,1527.32c.056-.552.014-1.952.014-1.952l-1.526-.053.082,2.1,1.009.668Z" transform="translate(-302.084 -1456.41)" fill="#fff"/>
          <path id="Path_32533" data-name="Path 32533" d="M315.414,1558.493c.129-.1.415.247.474.479.135.531,1.838.6,2.141.646a.455.455,0,0,1-.37.8c-.674,0-2.831,0-3.569-.012a.337.337,0,0,1-.326-.246c-.133-.513-.149-1.715.057-1.732.277.062,1.1.438,1.593.063" transform="translate(-299.678 -1488.038)" fill="#1f1f3b"/>
          <path id="Path_32534" data-name="Path 32534" d="M187.443,1527.355c.059-.552.026-1.951.026-1.951l-1.526-.061.07,2.1,1,.674Z" transform="translate(-177.693 -1456.436)" fill="#fff"/>
          <path id="Path_32535" data-name="Path 32535" d="M184.432,1553.888c.164.01.134.164.191.4.13.532,2.068.877,2.371.927a.455.455,0,0,1-.378.8c-.674-.009-2.831-.028-3.568-.042a.336.336,0,0,1-.324-.249c-.128-.514-.176-1.925.03-1.94.277.064.93.06,1.677.108" transform="translate(-174.514 -1483.597)" fill="#1f1f3b"/>
          <path id="Path_32536" data-name="Path 32536" d="M169.743,1053.595c.019.25.045.521.08.819a67.148,67.148,0,0,1,.341,7.27c-.068,2.379.143,7.944.143,8.8a3.092,3.092,0,0,0,2.2,0s.183-4.592.387-8.612a51.025,51.025,0,0,1,.812-7.093h0c.007.019.153.424.366,1.047a55.154,55.154,0,0,1,1.58,5.335c.568,2.625.272,9.465.51,9.7.709.418,1.909.458,2.229-.122,0,0,.136-8.46-.116-9.785-.171-.9-1.614-9.73-1.936-12.1,0,0-6.355-1.386-6.55.785a7.715,7.715,0,0,0-.031.809c0,.337-.014.649-.032.992a15.144,15.144,0,0,0,.014,2.157" transform="translate(-162.176 -1000.936)" fill="#262029"/>
          <g id="Group_1638" data-name="Group 1638" transform="translate(10.973 52.637)" opacity="0.46">
            <g id="Group_1637" data-name="Group 1637">
              <g id="Group_1636" data-name="Group 1636" clip-path="url(#clip-path-2)">
                <path id="Path_32537" data-name="Path 32537" d="M246.539,1163.227v0l.018-.012-.019.008" transform="translate(-246.539 -1163.219)" fill="#1f1f3b"/>
              </g>
            </g>
          </g>
          <g id="Group_1641" data-name="Group 1641" transform="translate(11.532 52.757)" opacity="0.54">
            <g id="Group_1640" data-name="Group 1640">
              <g id="Group_1639" data-name="Group 1639" clip-path="url(#clip-path-3)">
                <path id="Path_32538" data-name="Path 32538" d="M258.994,1166.951h0c.007.019.286.806.5,1.429l-.25-2.512a5.579,5.579,0,0,1-.25,1.083" transform="translate(-258.994 -1165.868)" fill="#1f1f3b"/>
              </g>
            </g>
          </g>
          <g id="Group_1644" data-name="Group 1644" transform="translate(7.519 50.246)" opacity="0.35">
            <g id="Group_1643" data-name="Group 1643">
              <g id="Group_1642" data-name="Group 1642" clip-path="url(#clip-path-4)">
                <path id="Path_32539" data-name="Path 32539" d="M169.681,1111.749c.053-.012,2.5-.534,2.833-1.76,0,0-2.13.183-2.811.256-.03.56-.044,1.188-.023,1.5" transform="translate(-169.671 -1109.989)" fill="#1f1f3b"/>
              </g>
            </g>
          </g>
          <path id="Path_32540" data-name="Path 32540" d="M185.33,842.246c.55-.149.6.76,1.159.8.293.023.228-.1.367-.239.085-.083.165-.176.3-.038,2.739,2.811-.113,9.9.236,10.392.285.4-2.033,1.287-3.489.932-2-.487-1.875-2.655-1.817-3.07s1.344-7.453,1.344-7.453a10.916,10.916,0,0,0,1.9-1.328" transform="translate(-173.984 -804.012)" fill="#fff"/>
          <path id="Path_32541" data-name="Path 32541" d="M296.1,856.171c-.214-.334-4.5,1.972-5.2,1.7-1.425-.552-3.3-2.9-5.52-3.554a7.319,7.319,0,0,0,.091,1.7c.21,1.621-.7,2.775-.518,4.736.239,2.537-.385,5.128.239,5.7.364.333.869.4,1.478-.235.959-1,.328-4.262.241-5.037-.034-.3-.109-.709-.173-1.131-.079-.524-.012-1.579.3-1.671.782-.23,2.762,1.586,4,1.563A30.578,30.578,0,0,0,296.6,858.1c.377-.42-.506-1.931-.506-1.931" transform="translate(-272.208 -815.558)" fill="#7e3f98"/>
          <path id="Path_32542" data-name="Path 32542" d="M165.542,848.365a19.811,19.811,0,0,1-.754,3.506,14.064,14.064,0,0,0-.209,2.647h0a1.02,1.02,0,0,1-.255.456,2.2,2.2,0,0,1-2.8.247c-.468-.293.038-2.156.393-3.7h0c.065-.281.125-.551.173-.8s.081-.454.1-.641a2.417,2.417,0,0,0,.014-.285c0-.236-.011-.431-.018-.6h0c-.006-.153-.013-.289-.019-.419,0-.043,0-.086-.006-.129,0-.016,0-.032,0-.049,0-.106-.008-.214-.01-.329,0-.05,0-.1,0-.156,0-.132,0-.278,0-.445,0-.235.014-.513.031-.859a5.8,5.8,0,0,1,.831-3l.01-.01.059-.06a3.946,3.946,0,0,1,2.458-1.151h0a44.409,44.409,0,0,1,.008,5.768" transform="translate(-154.188 -804.362)" fill="#7e3f98"/>
          <g id="Group_1647" data-name="Group 1647" transform="translate(7.865 42.574)" opacity="0.18">
            <g id="Group_1646" data-name="Group 1646">
              <g id="Group_1645" data-name="Group 1645" clip-path="url(#clip-path-5)">
                <path id="Path_32543" data-name="Path 32543" d="M178.332,939.216s0,.019,0,.055c0,.065-.011.185-.026.344h0c-.01.1-.023.218-.039.346-.034.255-.084.556-.158.87a5.953,5.953,0,0,1-.333,1.026,3.6,3.6,0,0,1-.27.509,2.439,2.439,0,0,0,.013-.285c0-.236-.011-.431-.018-.6h0c-.006-.153-.013-.289-.019-.419,0-.043,0-.086-.006-.129,0-.016,0-.032,0-.048,0-.106-.008-.214-.01-.329l-.061.066c0-.029,0-.058,0-.087l-.025.033c0-.016,0-.032,0-.047l.025-.035.065-.087.765-1.034Z" transform="translate(-177.369 -939.216)" fill="#1f1f3b"/>
              </g>
            </g>
          </g>
          <path id="Path_32544" data-name="Path 32544" d="M111.1,1143.892h0l-.01-.012a.311.311,0,0,0-.191-.122l-.016,0-.02,0-.243-.011h-.031l-.269-.012-.718-.032a.281.281,0,0,0-.137.029.48.48,0,0,0-.24.414l-.014.272-.023.432s0,.006.006.007l.235.01a.006.006,0,0,0,.007-.006l.023-.433h0l0-.062a.36.36,0,0,1,.177-.309.208.208,0,0,1,.105-.023l.607.027.262.012h0l.073,0a.228.228,0,0,1,.174.1.375.375,0,0,1,.07.2.4.4,0,0,1,0,.056v0l0,.054-.023.439v0a.006.006,0,0,0,.007.006l.235.011a.006.006,0,0,0,.007-.006v0l.023-.44.014-.261a.529.529,0,0,0-.092-.337" transform="translate(-104.385 -1091.937)" fill="#201b2c"/>
          <path id="Path_32545" data-name="Path 32545" d="M115.651,1115.783a.006.006,0,0,1,.005.005c.036.26.113.192.211.533s.409.821.216.872-.339-.156-.432-.2.118.16,0,.324a.794.794,0,0,1-.817.123.854.854,0,0,1-.373-.738,3.605,3.605,0,0,1,.218-.951c.037-.143.9.017.97.03" transform="translate(-109.424 -1065.191)" fill="#eeada5"/>
          <path id="Path_32546" data-name="Path 32546" d="M141.15,1144.851h0l-.008-.01a.316.316,0,0,0-.193-.124l-.016,0-.02,0-.244-.008h-.011a.007.007,0,0,0-.006.008l.018.066h0v0h0l.03.113v0h0l.036.133a.231.231,0,0,1,.174.1h0a.373.373,0,0,1,.07.2.391.391,0,0,1,0,.056v0l0,.054-.023.439h0s0,0,.007.005l.235.011a.006.006,0,0,0,.007-.006l.024-.44.014-.264a.527.527,0,0,0-.091-.336" transform="translate(-134.436 -1092.897)" fill="#201b2c"/>
          <path id="Path_32547" data-name="Path 32547" d="M56.617,1159.039l-.155,3.267a.378.378,0,0,1-.405.342h0l-6.345-.177c-.716-.028-.689-.493-.68-.687l.046-3.091a.827.827,0,0,1,.86-.665l5.643.22.212.008a.8.8,0,0,1,.829.782" transform="translate(-46.925 -1105.623)" fill="#603a3e"/>
          <path id="Path_32548" data-name="Path 32548" d="M195.937,1163.757l-.155,3.267a.378.378,0,0,1-.405.342.007.007,0,0,1-.006,0,2.369,2.369,0,0,1-.037-.982,8.965,8.965,0,0,0-.435-3.405.006.006,0,0,1,.007-.008l.2.008a.8.8,0,0,1,.829.782" transform="translate(-186.246 -1110.341)" fill="#775155"/>
          <path id="Path_32549" data-name="Path 32549" d="M107.324,863.723a3.538,3.538,0,0,1-.548,1.348c-.605.708-1.113,1.289-1.539,1.77l-.029.033h0c-.327.368-.605.677-.843.937l-.061.067c-1.285,1.405-1.332,1.357-1.463,1.9a35.836,35.836,0,0,0,.147,4.709c0,.142-1.533.658-1.735.258a36.314,36.314,0,0,1-.409-5.409c.2-1.5,3.709-5.341,4.393-5.988.03-.028.054-.049.072-.065a1.809,1.809,0,0,1,1.2-.209c.475.058.881.263.817.652" transform="translate(-96.407 -823.901)" fill="#7e3f98"/>
          <g id="Group_1650" data-name="Group 1650" transform="translate(7.876 38.8)" opacity="0.18">
            <g id="Group_1649" data-name="Group 1649">
              <g id="Group_1648" data-name="Group 1648" clip-path="url(#clip-path-6)">
                <path id="Path_32550" data-name="Path 32550" d="M182.214,855.474c-.049-.028-.454.928-1.068,1.277a1.5,1.5,0,0,1-.55.193c-.573.073-2.983-.108-2.983-.108a8.542,8.542,0,0,1,.77-.759,10.1,10.1,0,0,0,2.109.291,2.183,2.183,0,0,0,.616-.216,3.631,3.631,0,0,0,.874-.665c.113-.113.12-.274.264-.29.191-.021.031.313-.032.277" transform="translate(-177.612 -855.196)" fill="#1f1f39"/>
              </g>
            </g>
          </g>
          <path id="Path_32551" data-name="Path 32551" d="M41.06,852.184a.24.24,0,0,0-.278-.212c-.144.016-.152.076-.265.189a2.953,2.953,0,0,1-1.49.882c-.636.115-2.16-.623-3.095-.349s-1.163,1.145-2.518,1.461-2.869-.158-3.269-.06-.638.2-.616.364a.8.8,0,0,0,.534.5,17.759,17.759,0,0,0,3.46-.05c1.068-.222,1.926-1.261,2.616-1.372s2.181.183,2.992.08c.9-.115,1.569-1.226,1.631-1.19a.247.247,0,0,0,.235.033c.079-.026.074-.187.062-.278" transform="translate(-28.305 -813.315)" fill="#f4ad00"/>
          <path id="Path_32552" data-name="Path 32552" d="M565.043,886.477c-.2-.077-.5.307-.5.751s.115.8.276.7c.136-.084.4-.146.4-.253s-.176-1.2-.176-1.2" transform="translate(-539.286 -846.263)" fill="#efaea6"/>
          <path id="Path_32553" data-name="Path 32553" d="M739.959,928.817c.408-2.573-.06-4.119.273-5.781a7.34,7.34,0,0,1,2.574-4.685c1.522-1.07,4.313-2.84,3.191-1.59s-5,5.171-4.939,6.512c.078,1.7-.116,6.816-.116,6.816s-1.149-.221-.983-1.271" transform="translate(-706.804 -874.785)" fill="#419f81"/>
          <path id="Path_32554" data-name="Path 32554" d="M578.968,853.565c-.513-5.041-2.977-7.517-5.893-8.769s-2.211-.921-2.211-.921c.121,2.476.044,6.431,7.979,10.256Z" transform="translate(-545.248 -805.546)" fill="#419f81"/>
          <g id="Group_1653" data-name="Group 1653" transform="translate(25.54 38.289)" opacity="0.17">
            <g id="Group_1652" data-name="Group 1652">
              <g id="Group_1651" data-name="Group 1651" clip-path="url(#clip-path-7)">
                <path id="Path_32555" data-name="Path 32555" d="M577.367,853.367c-6.444-3.58-6.385-7.18-6.5-9.491a.714.714,0,0,1-.075-.039,1.355,1.355,0,0,1,.188.071c3.344,2.11,5.588,6.956,6.384,9.459" transform="translate(-570.795 -843.837)" fill="#1f1f39"/>
              </g>
            </g>
          </g>
          <path id="Path_32556" data-name="Path 32556" d="M676.22,814.094c.2-1.72.12-3.2.2-4.361a6.55,6.55,0,0,0-.68-2.841c-.952-2.078-1.39-2.953-2.6-3.47s3.349-.542,3.242,1.949a8.152,8.152,0,0,0,.276,2.125,6.832,6.832,0,0,1,.391,2.009c.07.774-.027,4.427.013,4.787s-.537.408-.537.408Z" transform="translate(-642.805 -766.683)" fill="#419f81"/>
          <path id="Path_32557" data-name="Path 32557" d="M809.316,309.774c3.384-4.154,7.712-10.05,7.819-18.643.1-8.23-4.011-18.108-14.394-18.639q-.119-.007-.242-.008c14.579,16.687,12.163,22.858,6.816,37.291" transform="translate(-766.551 -259.862)" fill="#f5d47b"/>
          <path id="Path_32558" data-name="Path 32558" d="M405.769,317.485h0a11.416,11.416,0,0,1-1.368-.081h-.009c-.205-.024-.395-.052-.579-.086a6.832,6.832,0,0,1-2.026-.665,3.468,3.468,0,0,1-1.158-.955,2.355,2.355,0,0,1-.485-1.463v0c0-.031,0-.069,0-.115v0a6.194,6.194,0,0,0-.249-2.7,31.775,31.775,0,0,0-3.127-4.788,51.39,51.39,0,0,1-4.97-7.787,22.874,22.874,0,0,1-2.487-10.445,21.228,21.228,0,0,1,1.464-7.743,17.454,17.454,0,0,1,3.914-5.943,17.168,17.168,0,0,1,5.835-3.787,19.54,19.54,0,0,1,7.19-1.322c.288,0,.58.006.87.017.091,0,.18,0,.267.009a14.718,14.718,0,0,1,7.018,2.1,15.009,15.009,0,0,1,4.74,4.7,20.566,20.566,0,0,1,2.624,6.136,25.476,25.476,0,0,1,.771,6.519,25.75,25.75,0,0,1-.8,6.1,26.018,26.018,0,0,1-1.912,5.09,41,41,0,0,1-5.181,7.661,20.98,20.98,0,0,1-1.994,2.052,11,11,0,0,0-1.555,1.641l0,0a2.451,2.451,0,0,0-.166.932,3.828,3.828,0,0,1-.114.845l0,.007a1.628,1.628,0,0,0-.072.38,2.935,2.935,0,0,1-.783,1.815,5.085,5.085,0,0,1-2.048,1.289l-.016.006-.033.012-.032.012A10.83,10.83,0,0,1,405.769,317.485Zm-1.169-1.677a9.8,9.8,0,0,0,1.169.068,9.2,9.2,0,0,0,2.978-.466l.086-.031a3.567,3.567,0,0,0,1.4-.857,1.312,1.312,0,0,0,.369-.826,3.234,3.234,0,0,1,.138-.755,3.389,3.389,0,0,0,.05-.484,3.413,3.413,0,0,1,.433-1.725,11.952,11.952,0,0,1,1.8-1.927,19.432,19.432,0,0,0,1.846-1.892,39.578,39.578,0,0,0,4.988-7.362,23.986,23.986,0,0,0,1.822-16.593,18.964,18.964,0,0,0-2.415-5.658,13.415,13.415,0,0,0-4.231-4.205,13.131,13.131,0,0,0-6.265-1.862h-.009c-.064,0-.131-.006-.2-.007h-.026c-.273-.011-.548-.017-.818-.017a17.94,17.94,0,0,0-6.6,1.21,15.569,15.569,0,0,0-5.292,3.432,15.855,15.855,0,0,0-3.554,5.4,19.63,19.63,0,0,0-1.349,7.159c-.071,7.4,3.931,12.871,7.146,17.267a32.715,32.715,0,0,1,3.287,5.06,7.437,7.437,0,0,1,.4,3.467c0,.01,0,.024,0,.041v.005a.761.761,0,0,0,.165.483,1.893,1.893,0,0,0,.631.5,5.325,5.325,0,0,0,1.551.5h.006c.151.028.307.051.479.071Z" transform="translate(-372.619 -257.8)" fill="#9863b9"/>
          <g id="Group_1656" data-name="Group 1656" transform="translate(20.328 16.726)" opacity="0.9">
            <g id="Group_1655" data-name="Group 1655">
              <g id="Group_1654" data-name="Group 1654" clip-path="url(#clip-path-8)">
                <path id="Path_32559" data-name="Path 32559" d="M571.9,365.564c.175-.093.39-.225.624-.372s.493-.31.776-.473a8.634,8.634,0,0,1,.935-.471,5.82,5.82,0,0,1,1.129-.354l.013,0a1.657,1.657,0,1,1,.65,3.25l-.028.005a3.627,3.627,0,0,0-1.069.438c-.209.117-.431.254-.676.4s-.514.315-.839.485a1.64,1.64,0,0,1-1.529-2.9Z" transform="translate(-565.796 -363.858)" fill="#fff"/>
                <path id="Path_32560" data-name="Path 32560" d="M454.917,480.218a18.826,18.826,0,0,1-.143-2.529,14.807,14.807,0,0,1,.257-2.58,14.026,14.026,0,0,1,.727-2.5,16.355,16.355,0,0,1,1.127-2.3v0a1.606,1.606,0,0,1,2.775,1.618,11.7,11.7,0,0,0-1.439,3.786,13.222,13.222,0,0,0-.049,4.1v0a1.64,1.64,0,0,1-3.254.42Z" transform="translate(-454.772 -464.766)" fill="#fff"/>
              </g>
            </g>
          </g>
          <path id="Line_87" data-name="Line 87" d="M6.42-.473H6.377L-1.737-.892A.8.8,0,0,1-2.5-1.737.8.8,0,0,1-1.654-2.5l8.114.418a.8.8,0,0,1,.762.845A.8.8,0,0,1,6.42-.473Z" transform="translate(56.91 31.675)" fill="#9863b9"/>
          <path id="Line_89" data-name="Line 89" d="M-1.7,1.9a.8.8,0,0,1-.756-.529A.8.8,0,0,1-1.972.337L5.66-2.452a.8.8,0,0,1,1.032.48A.8.8,0,0,1,6.212-.94L-1.42,1.848A.8.8,0,0,1-1.7,1.9Z" transform="translate(55.257 20.339)" fill="#9863b9"/>
          <path id="Line_91" data-name="Line 91" d="M-1.7,4.671a.8.8,0,0,1-.587-.254A.8.8,0,0,1-2.246,3.28L3.677-2.282a.8.8,0,0,1,1.137.036.8.8,0,0,1-.036,1.137L-1.145,4.453A.8.8,0,0,1-1.7,4.671Z" transform="translate(51.143 9.668)" fill="#9863b9"/>
          <path id="Line_93" data-name="Line 93" d="M-1.7,6.914a.8.8,0,0,1-.224-.032.8.8,0,0,1-.549-1L-.211-1.919a.8.8,0,0,1,1-.549.8.8,0,0,1,.549,1L-.923,6.333A.8.8,0,0,1-1.7,6.914Z" transform="translate(40.649 2.501)" fill="#9863b9"/>
          <path id="Line_95" data-name="Line 95" d="M.814,6.837A.8.8,0,0,1,.049,6.28l-2.51-7.728a.8.8,0,0,1,.517-1.014.8.8,0,0,1,1.014.517l2.51,7.728A.805.805,0,0,1,.814,6.837Z" transform="translate(26.551 3.502)" fill="#9863b9"/>
          <path id="Line_97" data-name="Line 97" d="M-1.7.153a.8.8,0,0,1-.8-.7.8.8,0,0,1,.694-.9L6.259-2.494a.8.8,0,0,1,.9.694.8.8,0,0,1-.694.9L-1.592.146A.813.813,0,0,1-1.7.153Z" transform="translate(7.067 34.026)" fill="#9863b9"/>
          <path id="Line_99" data-name="Line 99" d="M5.8,2.245a.8.8,0,0,1-.31-.063l-7.5-3.137a.8.8,0,0,1-.432-1.053.8.8,0,0,1,1.053-.432L6.11.7A.8.8,0,0,1,5.8,2.245Z" transform="translate(8.214 20.982)" fill="#9863b9"/>
          <path id="Line_101" data-name="Line 101" d="M3.965,4.938a.8.8,0,0,1-.577-.244L-2.273-1.135a.8.8,0,0,1,.017-1.138.8.8,0,0,1,1.138.017L4.543,3.573a.8.8,0,0,1-.577,1.365Z" transform="translate(14.444 10.684)" fill="#9863b9"/>
          <path id="Path_32561" data-name="Path 32561" d="M615.749,1193.632l-.419-.005a5.829,5.829,0,0,1-5.756-5.9s-.686-7.187.1-7.712,11.7-.367,12.077.151-.1,7.711-.1,7.711c-.037,4.074-2.682,5.8-5.9,5.756" transform="translate(-582.026 -1126.313)" fill="#2b2b36"/>
          <path id="Path_32562" data-name="Path 32562" d="M600.815,1224.982l-.017-.164a.823.823,0,0,1,.736-.9l11.823-1.2a.824.824,0,0,1,.9.736l.017.164a.824.824,0,0,1-.736.9l-11.823,1.2a.824.824,0,0,1-.9-.736" transform="translate(-573.906 -1167.401)" fill="#7c7c8b"/>
          <path id="Path_32563" data-name="Path 32563" d="M600.356,1285.6l-.017-.164a.824.824,0,0,1,.736-.9l11.823-1.2a.824.824,0,0,1,.9.736l.017.164a.824.824,0,0,1-.736.9l-11.823,1.2a.824.824,0,0,1-.9-.736" transform="translate(-573.468 -1225.299)" fill="#7c7c8b"/>
          <path id="Path_32564" data-name="Path 32564" d="M603.577,1345.187l-.017-.164a.823.823,0,0,1,.736-.9l11.823-1.2a.824.824,0,0,1,.9.736l.017.164a.824.824,0,0,1-.736.9l-11.823,1.2a.824.824,0,0,1-.9-.736" transform="translate(-576.544 -1282.205)" fill="#7c7c8b"/>
          <path id="Path_32565" data-name="Path 32565" d="M754.782,851.525a2.992,2.992,0,0,1,1.99-2.58c.923-.327.7-.239.7-.239-.087.76-.143,1.978-2.661,3Z" transform="translate(-720.977 -810.188)" fill="#419f81"/>
          <g id="Group_1659" data-name="Group 1659" transform="translate(34.304 38.508)" opacity="0.17">
            <g id="Group_1658" data-name="Group 1658">
              <g id="Group_1657" data-name="Group 1657" clip-path="url(#clip-path-9)">
                <path id="Path_32566" data-name="Path 32566" d="M765.877,851.5c2.055-.972,2.109-2.081,2.19-2.79a.227.227,0,0,0,.024-.01.411.411,0,0,0-.059.018,5.846,5.846,0,0,0-2.155,2.783" transform="translate(-765.877 -848.695)" fill="#1f1f39"/>
              </g>
            </g>
          </g>
          <g id="Group_1662" data-name="Group 1662" transform="translate(0 66.205)" opacity="0.308">
            <g id="Group_1661" data-name="Group 1661">
              <g id="Group_1660" data-name="Group 1660" clip-path="url(#clip-path-10)">
                <path id="Path_32567" data-name="Path 32567" d="M67.138,1591.34c0,2.312-15.84,5-34.091,5S0,1594.462,0,1592.15s14.8-4.187,33.047-4.187,34.091,1.064,34.091,3.376" transform="translate(0 -1587.963)" fill="#9863b9"/>
              </g>
            </g>
          </g>
          <path id="Path_32590" data-name="Path 32590" d="M603.1,446.4a.33.33,0,0,1-.244-.288,8.516,8.516,0,0,0-.282-1.541.33.33,0,0,1,.132-.362l1.223-.83a.331.331,0,0,0,.121-.4q-.162-.4-.357-.788a.332.332,0,0,0-.369-.175l-1.477.334a.329.329,0,0,1-.349-.141,8.593,8.593,0,0,0-.932-1.183.33.33,0,0,1-.051-.382l.7-1.3a.332.332,0,0,0-.077-.408q-.339-.291-.7-.551a.331.331,0,0,0-.408.016l-1.152.981a.329.329,0,0,1-.373.037,8.581,8.581,0,0,0-1.323-.6.329.329,0,0,1-.221-.314l.011-1.486a.331.331,0,0,0-.257-.325q-.444-.1-.9-.167a.332.332,0,0,0-.354.2l-.567,1.411a.329.329,0,0,1-.3.207c-.347.006-1,.031-1.425.074a.331.331,0,0,1-.328-.177l-.688-1.334a.332.332,0,0,0-.377-.169q-.452.115-.889.268a.332.332,0,0,0-.221.346l.152,1.5a.329.329,0,0,1-.184.33,8.479,8.479,0,0,0-1.2.707.329.329,0,0,1-.379,0l-1.229-.862a.332.332,0,0,0-.41.024q-.349.309-.669.648a.331.331,0,0,0-.036.41l.825,1.246a.329.329,0,0,1-.011.38,8.6,8.6,0,0,0-.753,1.188.329.329,0,0,1-.334.173l-1.5-.193a.331.331,0,0,0-.352.21q-.165.427-.293.871a.331.331,0,0,0,.159.383l1.308.719a.331.331,0,0,1,.168.337c-.063.45-.1,1.113-.119,1.453a.331.331,0,0,1-.215.294l-1.43.53a.331.331,0,0,0-.214.348q.049.449.136.887a.332.332,0,0,0,.319.267l1.479.028a.33.33,0,0,1,.308.231,8.518,8.518,0,0,0,.575,1.383.331.331,0,0,1-.047.374l-1.011,1.125a.331.331,0,0,0-.028.408q.245.361.518.7a.331.331,0,0,0,.406.088l1.321-.661a.33.33,0,0,1,.381.061,8.579,8.579,0,0,0,1.2,1,.33.33,0,0,1,.132.353l-.372,1.463a.332.332,0,0,0,.166.374q.371.2.759.366a.332.332,0,0,0,.4-.111l.863-1.2a.329.329,0,0,1,.365-.122,8.527,8.527,0,0,0,1.576.327.33.33,0,0,1,.284.251l.349,1.463a.326.326,0,0,0,.316.251h0q.417,0,.826-.032a.331.331,0,0,0,.3-.283l.207-1.469a.329.329,0,0,1,.265-.278,8.482,8.482,0,0,0,1.574-.459.329.329,0,0,1,.371.09l.981,1.124a.332.332,0,0,0,.406.074q.361-.193.7-.413a.333.333,0,0,0,.134-.391l-.5-1.405a.33.33,0,0,1,.1-.367,8.578,8.578,0,0,0,1.173-1.149.33.33,0,0,1,.371-.095l1.385.537a.331.331,0,0,0,.395-.124q.229-.341.431-.7a.332.332,0,0,0-.064-.406l-1.1-1.015a.33.33,0,0,1-.081-.371,8.433,8.433,0,0,0,.485-1.542.33.33,0,0,1,.286-.259l1.469-.167a.332.332,0,0,0,.292-.3,10.667,10.667,0,0,0,.053-1.066v-.033Zm-7.2.538a1.6,1.6,0,0,1-.012.194,1.526,1.526,0,0,1-.164.519,1.664,1.664,0,0,1-.1.167,1.535,1.535,0,0,1-.392.383,1.475,1.475,0,0,1-.169.1,1.521,1.521,0,0,1-.526.154c-.052.005-.105.008-.159.008h-.038a1.52,1.52,0,0,1-.532-.109,1.591,1.591,0,0,1-.18-.087,1.518,1.518,0,0,1-.413-.342,1.479,1.479,0,0,1-.121-.163,1.5,1.5,0,0,1-.2-.486,1.424,1.424,0,0,1-.032-.205c0-.043-.006-.087-.006-.132a1.518,1.518,0,0,1,.049-.385,1.493,1.493,0,0,1,.067-.2,1.523,1.523,0,0,1,.274-.434,1.492,1.492,0,0,1,.152-.148,1.525,1.525,0,0,1,.441-.259,1.561,1.561,0,0,1,.2-.061,1.541,1.541,0,0,1,.338-.037,1.653,1.653,0,0,1,.176.01,1.671,1.671,0,0,1,.207.039,1.513,1.513,0,0,1,.473.215,1.474,1.474,0,0,1,.163.128,1.52,1.52,0,0,1,.506,1.129Z" transform="translate(-560.342 -418.592)" fill="#8d7c4e"/>
          <path id="Path_32571" data-name="Path 32571" d="M1263.247,1246.808a10.24,10.24,0,0,0-.17,4.252c.282,1.263,2.184,8.926,2.05,9.149s-.659,1.17-.768,1.409,2.517-.728,2.507-1.211-.158-.233-.446-.948a24.251,24.251,0,0,1-.678-3.83c-.046-.539.044-5.888-.137-6.48s-2.356-2.342-2.356-2.342" transform="translate(-1206.287 -1190.415)" fill="#f5b1b4"/>
          <path id="Path_32572" data-name="Path 32572" d="M1146.147,736.048a1.7,1.7,0,0,0,.122-1.824c-.309-.431-1.052-.55-.833-.071s-.349,1.066-.18,1.528c.215.586.892.366.892.366" transform="translate(-1093.878 -700.496)" fill="#efaea6"/>
          <path id="Path_32573" data-name="Path 32573" d="M1279.383,1527.561a.165.165,0,0,0-.2.011,1.3,1.3,0,0,0-.409.606,1.285,1.285,0,0,1-.527.921c-.476.372-1,.36-1.157.535s-1.05.84-.738,1.138c.329.251,1.429-.067,1.782-.4a13.973,13.973,0,0,1,1.27-1.163c.111.126.173.077.173.077.276-.267.682-.584.708-.7a1.053,1.053,0,0,0-.36-.637c-.136-.111-.4-.287-.542-.383" transform="translate(-1219.053 -1458.529)" fill="#1f1e39"/>
          <path id="Path_32574" data-name="Path 32574" d="M1137.5,1256.105c-.011.236-.2,1.473-.439,2.959-.072.447-.148.917-.226,1.388-.357,2.169-.74,4.384-.815,4.66a24.243,24.243,0,0,0-.69,3.926c.03.791.265.6.1,1.071s-3.547-.023-3.354-.214,1.5-.427,1.71-.594c.144-.114.508-5.281.779-9,.036-.5.071-.972.1-1.4.081-1.086.147-1.905.187-2.208.17-1.316.74-.959,1.833-.955,0,0,.839-.267.807.368" transform="translate(-1081.314 -1198.891)" fill="#f5b1b4"/>
          <path id="Path_32575" data-name="Path 32575" d="M1114.229,1562.837a.175.175,0,0,0-.165-.128,1.366,1.366,0,0,0-.737.186,1.334,1.334,0,0,1-1.046.347c-.63-.04-1.058-.285-1.3-.258s-1.292.223-1.25.666c.087.419,1.049.661,1.558.644s1.854-.237,1.834-.177c0,.173.084.177.084.177a4.831,4.831,0,0,0,1.038-.055,1.064,1.064,0,0,0,.152-.737c-.032-.179-.117-.494-.165-.666" transform="translate(-1059.975 -1492.124)" fill="#1f1e39"/>
          <g id="Group_1668" data-name="Group 1668" transform="translate(56.763 59.988)" opacity="0">
            <g id="Group_1667" data-name="Group 1667">
              <g id="Group_1666" data-name="Group 1666" clip-path="url(#clip-path-11)">
                <path id="Path_32576" data-name="Path 32576" d="M1268.454,1328.1a10.978,10.978,0,0,1-2.421.337c-.14-.582-.167-.7-.219-.933-.01-.043-.019-.086-.027-.13l1.985-.526.677.745c0,.165,0,.334.006.507" transform="translate(-1265.787 -1326.845)" fill="#1f1f39"/>
              </g>
            </g>
          </g>
          <g id="Group_1671" data-name="Group 1671" transform="translate(53.253 59.623)" opacity="0">
            <g id="Group_1670" data-name="Group 1670">
              <g id="Group_1669" data-name="Group 1669" clip-path="url(#clip-path-12)">
                <path id="Path_32577" data-name="Path 32577" d="M1190.155,1319.253c-.072.447-.131.81-.208,1.281a4.653,4.653,0,0,0-2.284-.042c.036-.5.071-.971.1-1.4l.113-.387Z" transform="translate(-1187.663 -1318.702)" fill="#1f1f39"/>
              </g>
            </g>
          </g>
          <path id="Path_32578" data-name="Path 32578" d="M1175.548,1053.836c-.694.852-2.873.213-3.685.651a3.362,3.362,0,0,1-.639.226,9.227,9.227,0,0,1-3.394.346c-.9-.234-1.781-1.146-3.937.027-.538-1.975.809-10.664,1.783-12.943h0a2.671,2.671,0,0,1,.152-.308s2.4-1.414,4.489-.344a3.739,3.739,0,0,1,1.008.763l.015.024c2.143,3.428.442,7.022,4.208,11.559" transform="translate(-1111.591 -993.94)" fill="#9863b9"/>
          <path id="Path_32579" data-name="Path 32579" d="M1136.069,785.138a3.28,3.28,0,0,1-.263-1.463,16.588,16.588,0,0,1,2.042-.571,21.255,21.255,0,0,0,3.419-1.2c.629-.373,1.079-.5,2.925-1.613-.889.926-.7,2.576-.618,3.377a4.778,4.778,0,0,0,.783,2.3l.015.024c.138.264-.7.377-1.76.393a12.016,12.016,0,0,1-3.853-.4.248.248,0,0,1-.051-.131c-.1-.711,1.066-3.424,1.046-3.894-.021-.508-.956-.742-1.034-1.133s.791-1.247.586-1.133c-.641.356-3.066-.661-3.574-1.09s.12-5.856.12-5.856,1.4-.016,1.434.3-.5,4.093-.149,4.6,2.912-.259,3.934-.781a8.993,8.993,0,0,1,1.44-.1,5.29,5.29,0,0,1,2.048,1.411c.366.47-.036,2.32-.5,3.834-.27.888-7.795,2.968-7.99,3.125" transform="translate(-1084.621 -737.656)" fill="#fff"/>
          <path id="Path_32580" data-name="Path 32580" d="M1263.325,819.158a2.169,2.169,0,0,1,0,1.468c-.133.227-.281.782-.019.772a4.812,4.812,0,0,0,1.172-.545,1.613,1.613,0,0,0,.445-.589s-.6-1.036-1.009-1.9-.589.8-.589.8" transform="translate(-1206.517 -780.977)" fill="#f5b1b4"/>
          <g id="Group_1674" data-name="Group 1674" transform="translate(56.808 37.972)" opacity="0.28">
            <g id="Group_1673" data-name="Group 1673">
              <g id="Group_1672" data-name="Group 1672" clip-path="url(#clip-path-13)">
                <path id="Path_32581" data-name="Path 32581" d="M1266.92,837.744c-.006-.108-.018-.228-.039-.362-.006-.047-.063-.356-.072-.407a.485.485,0,0,1,.171-.115c.064-.012.194,0,.254-.07.1-.121.292.228.207.433a1.489,1.489,0,0,1-.522.521" transform="translate(-1266.81 -836.765)" fill="#1f1f39"/>
              </g>
            </g>
          </g>
          <path id="Path_32582" data-name="Path 32582" d="M1111.146,1019.153a1.7,1.7,0,0,1-1.817.2c-.444-.29-.588-1.044-.106-.829.752.335.4-.206.576-.224.3-.031.8.406.955.318.1-.055.392.536.392.536" transform="translate(-1059.208 -972.17)" fill="#efaea6"/>
          <path id="Path_32583" data-name="Path 32583" d="M1149.569,871.234c.111.211-.4.326-1.156.371-.188.011-.392.019-.6.022a12.02,12.02,0,0,1-3.853-.4.25.25,0,0,1-.051-.131h0a5.815,5.815,0,0,1,.417-1.812c-1.463.492-2.946,1.005-3.054,1.091a3.278,3.278,0,0,1-.264-1.463,16.612,16.612,0,0,1,2.042-.571c.323-.109,1.039-.3,1.766-.532a2.472,2.472,0,0,0,.139-.607c-.021-.508-.956-.742-1.034-1.133s.791-1.247.586-1.133c-.64.356.742-2.305,1.764-2.827a8.981,8.981,0,0,1,1.44-.1,5.7,5.7,0,0,1,2.048,1.411,3.757,3.757,0,0,1-.417,2.146l.051-.031c-.024.025-.047.051-.069.077a8.757,8.757,0,0,1-.51,1.065,7.026,7.026,0,0,0-.038,2.236,4.78,4.78,0,0,0,.783,2.3l.015.024" transform="translate(-1089.82 -822.896)" fill="#fff"/>
          <g id="Group_1677" data-name="Group 1677" transform="translate(55.733 42.217)" opacity="0.28">
            <g id="Group_1676" data-name="Group 1676">
              <g id="Group_1675" data-name="Group 1675" clip-path="url(#clip-path-14)">
                <path id="Path_32584" data-name="Path 32584" d="M1242.879,933.721c1.812-1.135,2.058-1.361,2.146-2.459.214.905.037,1.159-.064,1.325a11.617,11.617,0,0,1-2.082,1.133" transform="translate(-1242.879 -931.262)" fill="#1f1f39"/>
              </g>
            </g>
          </g>
          <g id="Group_1680" data-name="Group 1680" transform="translate(54.838 44.828)" opacity="0.28">
            <g id="Group_1679" data-name="Group 1679">
              <g id="Group_1678" data-name="Group 1678" clip-path="url(#clip-path-15)">
                <path id="Path_32585" data-name="Path 32585" d="M1222.935,990.959c-.022-.01,4.037-1.505,4.041-1.581,0,.176,0,.313.01.421-.123-.028-3.979,1.191-4.051,1.16" transform="translate(-1222.935 -989.378)" fill="#1f1f39"/>
              </g>
            </g>
          </g>
          <g id="Group_1683" data-name="Group 1683" transform="translate(54.713 40.747)" opacity="0.28">
            <g id="Group_1682" data-name="Group 1682">
              <g id="Group_1681" data-name="Group 1681" clip-path="url(#clip-path-16)">
                <path id="Path_32586" data-name="Path 32586" d="M1221.246,898.537a3.811,3.811,0,0,0-1.085,1.3c.273-.648.408-.989.408-.989a2.873,2.873,0,0,1,.677-.307" transform="translate(-1220.161 -898.537)" fill="#1f1f39"/>
              </g>
            </g>
          </g>
          <g id="Group_1686" data-name="Group 1686" transform="translate(58.364 46.015)" opacity="0.16">
            <g id="Group_1685" data-name="Group 1685">
              <g id="Group_1684" data-name="Group 1684" clip-path="url(#clip-path-17)">
                <path id="Path_32587" data-name="Path 32587" d="M1307.031,1029.695c-.694.852-2.873.213-3.685.65a3.376,3.376,0,0,1-.639.226c-1.493-3.323-1.412-8.413-1.04-12.064.042-.405.086-.793.133-1.158.073-.572.151-1.089.226-1.536a4.776,4.776,0,0,0,.783,2.3l.015.024c2.143,3.428.442,7.022,4.208,11.559" transform="translate(-1301.438 -1015.813)" fill="#3d2148"/>
              </g>
            </g>
          </g>
          <path id="Path_32588" data-name="Path 32588" d="M1247.26,793.537c-.458.571-.917.731-.705.883.161.115-.758,1.305-.019,1.391a1.53,1.53,0,0,0,1.748-.742c.324-.7.531-1.1.531-1.1Z" transform="translate(-1190.359 -757.507)" fill="#f5b1b4"/>
          <path id="Path_32589" data-name="Path 32589" d="M1265.216,777.779a3.048,3.048,0,0,0,.482.844.25.25,0,0,0,.334.055c.088-.085.256-.058.385.078.156.163-.094.33-.229.453a.413.413,0,0,0-.083.4c.161.495-.7,1.4,1.789,2.635a7.123,7.123,0,0,0,1.964.609c1.305.213,2.444.055,2.589-.307.105-.264-.358-.839-.739-1.086s-.6-.014-.894-.216c-.332-.232.383-.969-.682-1.315s-1.2-.118-1.5-.374-.275-2.278-1.582-2.555a1.738,1.738,0,0,0-1.623.316c-.093.086-.247.335-.215.457" transform="translate(-1208.475 -741.661)" fill="#1f1f39"/>
          <path id="Path_32568" data-name="Path 32568" d="M603.1,446.4a.33.33,0,0,1-.244-.288,8.516,8.516,0,0,0-.282-1.541.33.33,0,0,1,.132-.362l1.223-.83a.331.331,0,0,0,.121-.4q-.162-.4-.357-.788a.332.332,0,0,0-.369-.175l-1.477.334a.329.329,0,0,1-.349-.141,8.593,8.593,0,0,0-.932-1.183.33.33,0,0,1-.051-.382l.7-1.3a.332.332,0,0,0-.077-.408q-.339-.291-.7-.551a.331.331,0,0,0-.408.016l-1.152.981a.329.329,0,0,1-.373.037,8.581,8.581,0,0,0-1.323-.6.329.329,0,0,1-.221-.314l.011-1.486a.331.331,0,0,0-.257-.325q-.444-.1-.9-.167a.332.332,0,0,0-.354.2l-.567,1.411a.329.329,0,0,1-.3.207c-.347.006-1,.031-1.425.074a.331.331,0,0,1-.328-.177l-.688-1.334a.332.332,0,0,0-.377-.169q-.452.115-.889.268a.332.332,0,0,0-.221.346l.152,1.5a.329.329,0,0,1-.184.33,8.479,8.479,0,0,0-1.2.707.329.329,0,0,1-.379,0l-1.229-.862a.332.332,0,0,0-.41.024q-.349.309-.669.648a.331.331,0,0,0-.036.41l.825,1.246a.329.329,0,0,1-.011.38,8.6,8.6,0,0,0-.753,1.188.329.329,0,0,1-.334.173l-1.5-.193a.331.331,0,0,0-.352.21q-.165.427-.293.871a.331.331,0,0,0,.159.383l1.308.719a.331.331,0,0,1,.168.337c-.063.45-.1,1.113-.119,1.453a.331.331,0,0,1-.215.294l-1.43.53a.331.331,0,0,0-.214.348q.049.449.136.887a.332.332,0,0,0,.319.267l1.479.028a.33.33,0,0,1,.308.231,8.518,8.518,0,0,0,.575,1.383.331.331,0,0,1-.047.374l-1.011,1.125a.331.331,0,0,0-.028.408q.245.361.518.7a.331.331,0,0,0,.406.088l1.321-.661a.33.33,0,0,1,.381.061,8.579,8.579,0,0,0,1.2,1,.33.33,0,0,1,.132.353l-.372,1.463a.332.332,0,0,0,.166.374q.371.2.759.366a.332.332,0,0,0,.4-.111l.863-1.2a.329.329,0,0,1,.365-.122,8.527,8.527,0,0,0,1.576.327.33.33,0,0,1,.284.251l.349,1.463a.326.326,0,0,0,.316.251h0q.417,0,.826-.032a.331.331,0,0,0,.3-.283l.207-1.469a.329.329,0,0,1,.265-.278,8.482,8.482,0,0,0,1.574-.459.329.329,0,0,1,.371.09l.981,1.124a.332.332,0,0,0,.406.074q.361-.193.7-.413a.333.333,0,0,0,.134-.391l-.5-1.405a.33.33,0,0,1,.1-.367,8.578,8.578,0,0,0,1.173-1.149.33.33,0,0,1,.371-.095l1.385.537a.331.331,0,0,0,.395-.124q.229-.341.431-.7a.332.332,0,0,0-.064-.406l-1.1-1.015a.33.33,0,0,1-.081-.371,8.433,8.433,0,0,0,.485-1.542.33.33,0,0,1,.286-.259l1.469-.167a.332.332,0,0,0,.292-.3,10.667,10.667,0,0,0,.053-1.066v-.033Zm-7.2.538a1.6,1.6,0,0,1-.012.194,1.526,1.526,0,0,1-.164.519,1.664,1.664,0,0,1-.1.167,1.535,1.535,0,0,1-.392.383,1.475,1.475,0,0,1-.169.1,1.521,1.521,0,0,1-.526.154c-.052.005-.105.008-.159.008h-.038a1.52,1.52,0,0,1-.532-.109,1.591,1.591,0,0,1-.18-.087,1.518,1.518,0,0,1-.413-.342,1.479,1.479,0,0,1-.121-.163,1.5,1.5,0,0,1-.2-.486,1.424,1.424,0,0,1-.032-.205c0-.043-.006-.087-.006-.132a1.518,1.518,0,0,1,.049-.385,1.493,1.493,0,0,1,.067-.2,1.523,1.523,0,0,1,.274-.434,1.492,1.492,0,0,1,.152-.148,1.525,1.525,0,0,1,.441-.259,1.561,1.561,0,0,1,.2-.061,1.541,1.541,0,0,1,.338-.037,1.653,1.653,0,0,1,.176.01,1.671,1.671,0,0,1,.207.039,1.513,1.513,0,0,1,.473.215,1.474,1.474,0,0,1,.163.128,1.52,1.52,0,0,1,.506,1.129Z" transform="translate(-560.118 -418.879)" fill="#f5d376"/>
          <path id="Path_32569" data-name="Path 32569" d="M677.312,523.437v.02a6.168,6.168,0,0,1-.049.781A6.116,6.116,0,0,1,676.186,527a6.156,6.156,0,0,1-2.256,1.942,6.093,6.093,0,0,1-2.116.619,6.289,6.289,0,0,1-.64.033l-.152,0a6.127,6.127,0,0,1-5.963-5.607q-.022-.262-.023-.53a6.155,6.155,0,0,1,.2-1.552,6.067,6.067,0,0,1,.27-.8,6.136,6.136,0,0,1,1.1-1.747,6.16,6.16,0,0,1,2.39-1.639,6.114,6.114,0,0,1,2.176-.4,6.235,6.235,0,0,1,.708.04,6.15,6.15,0,0,1,4.708,3.207,6.1,6.1,0,0,1,.722,2.872" transform="translate(-636.937 -495.373)" fill="#7e3f98"/>
          <g id="Group_1665" data-name="Group 1665" transform="translate(28.098 21.944)" opacity="0.67">
            <g id="Group_1664" data-name="Group 1664" transform="translate(0 0)">
              <g id="Group_1663" data-name="Group 1663" clip-path="url(#clip-path-18)">
                <path id="Path_32570" data-name="Path 32570" d="M676.556,520.5a6.112,6.112,0,0,0-.855-.945,6.19,6.19,0,0,0-.656-.515,6.1,6.1,0,0,0-2.74-1.018,6.119,6.119,0,0,0-4.659,1.4,6.056,6.056,0,0,0-.615.6,6.113,6.113,0,0,0-1.572,4.1q0,.268.022.53a6.081,6.081,0,0,0,.732,2.421q-.108-.148-.207-.3a6.108,6.108,0,0,1-.82-1.957,6.181,6.181,0,0,1-.127-.825c-.015-.175-.022-.352-.022-.53a6.149,6.149,0,0,1,.2-1.552,6.051,6.051,0,0,1,.271-.8,6.14,6.14,0,0,1,1.1-1.747,6.057,6.057,0,0,1,.615-.6A6.137,6.137,0,0,1,669,517.711a6.17,6.17,0,0,1,3.717-.2,6.156,6.156,0,0,1,3.84,2.988" transform="translate(-665.037 -517.314)" fill="#1b1b31"/>
              </g>
            </g>
          </g>
        </g>
      </g>
    </g>
    <g id="Group_1694" data-name="Group 1694" transform="translate(31.798 25.737)">
      <g id="Group_1695" data-name="Group 1695" transform="translate(0 0)">
        <path id="Path_32591" data-name="Path 32591" d="M3.07,6.658,0,3.868H2.153A1.017,1.017,0,0,0,3.09,2.789V1h.759V2.789a1.773,1.773,0,0,1-1.7,1.838h-.19L3.58,6.1Z" transform="translate(0.001 -0.621)" fill="#fff"/>
        <path id="Line_87-2" data-name="Line 87" d="M4.539-.241H0V-1H4.539Z" transform="translate(0.421 1)" fill="#fff"/>
        <path id="Line_88" data-name="Line 88" d="M.966-.241H0V-1H.966Z" transform="translate(3.993 2.69)" fill="#fff"/>
        <path id="Line_89-2" data-name="Line 89" d="M3.573-.241H0V-1H3.573Z" transform="translate(0.421 2.69)" fill="#fff"/>
      </g>
    </g>
  </g>
</svg>
