<svg xmlns="http://www.w3.org/2000/svg" xmlns:xlink="http://www.w3.org/1999/xlink" width="101" height="101.706" viewBox="0 0 101 101.706">
  <defs>
    <clipPath id="clip-path">
      <rect id="Rectangle_373" data-name="Rectangle 373" width="5.604" height="10.998" fill="#824ea3"/>
    </clipPath>
    <clipPath id="clip-path-2">
      <rect id="Rectangle_374" data-name="Rectangle 374" width="5.219" height="15.364" fill="#824ea3"/>
    </clipPath>
    <clipPath id="clip-path-3">
      <rect id="Rectangle_375" data-name="Rectangle 375" width="3.912" height="9.863" fill="#f5d47b"/>
    </clipPath>
    <clipPath id="clip-path-4">
      <rect id="Rectangle_376" data-name="Rectangle 376" width="1.353" height="1.966" fill="none"/>
    </clipPath>
    <clipPath id="clip-path-5">
      <rect id="Rectangle_377" data-name="Rectangle 377" width="0.854" height="0.59" fill="none"/>
    </clipPath>
    <clipPath id="clip-path-6">
      <rect id="Rectangle_378" data-name="Rectangle 378" width="2.088" height="1.464" fill="none"/>
    </clipPath>
    <clipPath id="clip-path-7">
      <rect id="Rectangle_379" data-name="Rectangle 379" width="3.929" height="1.929" fill="none"/>
    </clipPath>
    <clipPath id="clip-path-8">
      <rect id="Rectangle_380" data-name="Rectangle 380" width="4.434" height="1.517" fill="none"/>
    </clipPath>
    <clipPath id="clip-path-9">
      <rect id="Rectangle_381" data-name="Rectangle 381" width="4.275" height="7.833" fill="#f5d47b"/>
    </clipPath>
    <clipPath id="clip-path-10">
      <rect id="Rectangle_382" data-name="Rectangle 382" width="2.548" height="2.952" fill="#f5d47b"/>
    </clipPath>
    <clipPath id="clip-path-11">
      <rect id="Rectangle_383" data-name="Rectangle 383" width="3.316" height="1.809" fill="#f5d47b"/>
    </clipPath>
    <clipPath id="clip-path-12">
      <rect id="Rectangle_385" data-name="Rectangle 385" width="26.609" height="41.394" fill="none"/>
    </clipPath>
    <clipPath id="clip-path-13">
      <path id="Path_27616" data-name="Path 27616" d="M349.685,146.84a1.378,1.378,0,0,0-1.215.771,1.679,1.679,0,0,1-2.982,0,1.378,1.378,0,0,0-1.214-.771h-8.1v38.212h22.1V146.84Z" transform="translate(-336.174 -146.84)" fill="none"/>
    </clipPath>
    <clipPath id="clip-path-14">
      <rect id="Rectangle_388" data-name="Rectangle 388" width="5.904" height="10.728" fill="none"/>
    </clipPath>
    <clipPath id="clip-path-15">
      <rect id="Rectangle_389" data-name="Rectangle 389" width="4.768" height="10.152" fill="none"/>
    </clipPath>
    <clipPath id="clip-path-16">
      <rect id="Rectangle_390" data-name="Rectangle 390" width="1.533" height="1.898" fill="none"/>
    </clipPath>
    <clipPath id="clip-path-17">
      <rect id="Rectangle_391" data-name="Rectangle 391" width="4.508" height="4.112" fill="none"/>
    </clipPath>
  </defs>
  <g id="Group_1615" data-name="Group 1615" transform="translate(0)">
    <g id="Group_1610" data-name="Group 1610" transform="translate(0.001 0)">
      <circle id="Ellipse_60" data-name="Ellipse 60" cx="50.5" cy="50.5" r="50.5" transform="translate(-0.001 0)" fill="#fbebc0"/>
      <path id="Subtraction_4" data-name="Subtraction 4" d="M46.332,29.72a50.748,50.748,0,0,1-27.858-8.283,51.175,51.175,0,0,1-10.73-9.394A50.991,50.991,0,0,1,0,0H92.662a50.964,50.964,0,0,1-7.744,12.044,51.141,51.141,0,0,1-10.73,9.394A50.74,50.74,0,0,1,46.332,29.72Z" transform="translate(4.182 71.986)" fill="#d5c3df"/>
    </g>
    <g id="Group_1598" data-name="Group 1598" transform="translate(10.085 13.917)">
      <g id="Group_967" data-name="Group 967" transform="translate(0 0)">
        <g id="Group_796" data-name="Group 796" transform="translate(0)">
          <g id="Group_950" data-name="Group 950">
            <g id="Group_775" data-name="Group 775" transform="translate(0 15.994)">
              <g id="Group_951" data-name="Group 951" transform="translate(0 0)">
                <path id="Path_27540" data-name="Path 27540" d="M140.925,370.177a1.554,1.554,0,0,0-1.273-.074,4.007,4.007,0,0,0-1.9,1.908l-.154-.329a.777.777,0,0,0-1.189-.277l-.126.1a4.542,4.542,0,0,0-1.593-5.1,3.011,3.011,0,0,0-1.968-.614,3.065,3.065,0,0,0-2.368,1.938,9.025,9.025,0,0,0-.546,3.147.659.659,0,0,0-1.1.514,6.55,6.55,0,0,0-3.35-1.646,1.5,1.5,0,0,0-2.073,1.654,7.442,7.442,0,0,0,.591,2.891,2.723,2.723,0,0,0-1.672-.1c-.532.2-.892.92-.531,1.358a10.483,10.483,0,0,0-3.487-.341,1.918,1.918,0,0,0-1.142.358,1.638,1.638,0,0,0-.448,1.322c.052,1.331.854,1.991,2.082,2.506,0,0,3.606-.6,9.648-1.048s10.732-.375,10.732-.375a11.405,11.405,0,0,0,2.54-5.672c.112-.776.105-1.68-.672-2.112" transform="translate(-116.593 -327.775)" fill="#c3aad1"/>
                <path id="Path_27541" data-name="Path 27541" d="M213.533,386.87l.077-.131.087-.156c.026-.053.048-.108.073-.163l.143-.327c.048-.109.1-.219.141-.329s.076-.225.115-.338c.07-.227.148-.454.209-.684a15.033,15.033,0,0,0,.395-2.82,26.808,26.808,0,0,0,.011-2.837,27.339,27.339,0,0,0-.289-2.816.018.018,0,0,0-.019-.014.017.017,0,0,0-.015.019,27.206,27.206,0,0,1,.151,2.816,26.6,26.6,0,0,1-.113,2.81,27.475,27.475,0,0,1-.455,2.761c-.047.228-.112.451-.166.678-.029.113-.051.228-.085.339s-.071.221-.1.333a8.515,8.515,0,0,1-.3.867l.144-.006" transform="translate(-197.673 -336.549)" fill="#a77ec2"/>
                <path id="Path_27542" data-name="Path 27542" d="M243.676,400.271a9.682,9.682,0,0,0,.459-2.034.017.017,0,0,0-.034,0h0a9.587,9.587,0,0,1-.587,1.978,15.468,15.468,0,0,1-.891,1.858c-.176.3-.347.593-.543.875-.181.291-.38.571-.564.861-.088.148-.186.288-.284.43s-.192.286-.284.432q-.161.235-.32.474l.2,0c.1-.106.209-.212.308-.323.225-.266.457-.529.659-.814a12.231,12.231,0,0,0,1.067-1.8,15.728,15.728,0,0,0,.81-1.929" transform="translate(-220.49 -354.947)" fill="#a77ec2"/>
                <path id="Path_27543" data-name="Path 27543" d="M174.666,409.769a3.281,3.281,0,0,0-.034-.523c-.019-.16-.037-.321-.066-.48l-.105-.473a8.789,8.789,0,0,0-.715-1.791,15.725,15.725,0,0,0-.967-1.659,14.579,14.579,0,0,0-1.174-1.511.018.018,0,0,0-.024,0,.017.017,0,0,0,0,.024,14.489,14.489,0,0,1,1.054,1.58,15.523,15.523,0,0,1,.862,1.684l.181.436.157.444c.059.146.1.3.149.445s.108.294.148.445c.155.456.271.919.388,1.391l.149-.011" transform="translate(-162.648 -359.226)" fill="#a77ec2"/>
                <path id="Path_27544" data-name="Path 27544" d="M131.2,434.55a5.036,5.036,0,0,0-1.078-.828,9.023,9.023,0,0,0-1.2-.622,8.122,8.122,0,0,0-1.274-.416h0a.017.017,0,0,0-.02.011.017.017,0,0,0,.01.022,9.079,9.079,0,0,1,1.212.539,8.785,8.785,0,0,1,1.117.695c.358.254.663.566.992.846.073.061.143.125.213.189l.353-.041c-.033-.046-.066-.093-.1-.139Z" transform="translate(-125.838 -383.817)" fill="#a77ec2"/>
                <path id="Path_27550" data-name="Path 27550" d="M363.762,152.177a.079.079,0,0,1-.045-.014q-.1-.068-.194-.139a.079.079,0,0,1,.094-.127q.1.07.191.137a.079.079,0,0,1-.045.144" transform="translate(-323.405 -148.606)" fill="#4c859b"/>
                <path id="Path_27556" data-name="Path 27556" d="M367.708,446.5c-4.715,0-8.538.262-8.538.585v1.522c0,.323,3.822.584,8.538.584s8.538-.262,8.538-.584v-1.522c0-.323-3.822-.585-8.538-.585" transform="translate(-319.785 -395.394)" fill="#a77ec2"/>
                <path id="Path_27557" data-name="Path 27557" d="M234.262,447.664s.4-.277.666,0a1.958,1.958,0,0,0,1.31.742c.671.063.938.145.917.69a16.364,16.364,0,0,1-4.207,0s-.252-1.81.351-1.477a5.107,5.107,0,0,0,.963.044" transform="translate(-214.013 -396.262)" fill="#543667"/>
                <path id="Path_27558" data-name="Path 27558" d="M236.419,438.875l-.079,1.53a.866.866,0,0,1-.5.124.594.594,0,0,1-.466-.169l.023-1.486Z" transform="translate(-216.091 -389.003)" fill="#efcab9"/>
                <path id="Path_27559" data-name="Path 27559" d="M207.511,297.72a2.65,2.65,0,0,0-1.629,3.544q.628,1.587,1.242,3.176.572,1.478,1.119,2.952l.531,1.467c.164.471.34.992.45,1.358a2.831,2.831,0,0,1,.12.546c.026.242.058.476.078.736.047.506.084,1.028.119,1.549.071,1.044.126,2.1.18,3.154.1,2.11.541,2.49.618,4.6,0,0,.131.188.648.236a.947.947,0,0,0,.709-.129c.287-2.1.214-2.453.474-4.557.128-1.053.255-2.105.367-3.17.055-.534.11-1.066.154-1.615.026-.268.039-.561.056-.847a6.5,6.5,0,0,0-.031-1.03c-.075-.677-.162-1.183-.253-1.741l-.287-1.606q-.3-1.594-.615-3.166-.34-1.7-.694-3.38A2.683,2.683,0,0,0,207.511,297.72Z" transform="translate(-191.22 -270.674)" fill="#9863b9"/>
                <g id="Group_734" data-name="Group 734" transform="translate(14.465 26.936)" opacity="0.5" style="mix-blend-mode: normal;isolation: isolate">
                  <g id="Group_733" data-name="Group 733">
                    <g id="Group_732" data-name="Group 732" clip-path="url(#clip-path)">
                      <path id="Path_27560" data-name="Path 27560" d="M208.824,305.779l2.465-3.927c-.14-.685-.278-1.37-.421-2.053a2.684,2.684,0,0,0-3.357-2.079,2.65,2.65,0,0,0-1.629,3.544q.628,1.587,1.242,3.176.572,1.478,1.119,2.953l.44,1.216c.09-1.29.14-2.83.14-2.83" transform="translate(-205.686 -297.611)" fill="#824ea3"/>
                    </g>
                  </g>
                </g>
                <path id="Path_27561" data-name="Path 27561" d="M174.827,445.977s.464-.141.634.206a1.957,1.957,0,0,0,1.016,1.111c.618.267.847.428.658.94a16.37,16.37,0,0,1-4-1.3s.321-1.8.791-1.3a5.084,5.084,0,0,0,.9.34" transform="translate(-163.955 -394.593)" fill="#543667"/>
                <path id="Path_27562" data-name="Path 27562" d="M179.454,437.754l-.548,1.431a.868.868,0,0,1-.511-.036.594.594,0,0,1-.391-.3l.481-1.406Z" transform="translate(-168.033 -387.8)" fill="#efcab9"/>
                <path id="Path_27563" data-name="Path 27563" d="M181.761,298.43a2.65,2.65,0,0,0-2.444,3.04q.222,1.692.43,3.383.194,1.573.365,3.136l.158,1.552c.045.5.088,1.045.105,1.426a2.816,2.816,0,0,1-.017.559c-.033.241-.06.476-.1.733-.077.5-.169,1.018-.262,1.531-.186,1.03-.39,2.067-.595,3.1-.413,2.072-.61,2.352-1.051,4.421a1.385,1.385,0,0,0,.661.492,1.364,1.364,0,0,0,.816.008c.789-1.963,1.147-2.2,1.911-4.175.381-.99.761-1.98,1.129-2.985.184-.5.367-1.007.543-1.529.09-.253.175-.535.261-.808a6.535,6.535,0,0,0,.221-1.007c.093-.675.131-1.187.179-1.75l.113-1.627q.1-1.618.176-3.22.083-1.728.151-3.448A2.684,2.684,0,0,0,181.761,298.43Z" transform="translate(-168.321 -271.359)" fill="#9863b9"/>
                <g id="Group_737" data-name="Group 737" transform="translate(10.972 27.069)" opacity="0.5" style="mix-blend-mode: normal;isolation: isolate">
                  <g id="Group_736" data-name="Group 736">
                    <g id="Group_735" data-name="Group 735" clip-path="url(#clip-path-2)">
                      <path id="Path_27564" data-name="Path 27564" d="M189.376,301.533c0-.089.008-.179.012-.268a2.683,2.683,0,0,0-2.748-2.835,2.65,2.65,0,0,0-2.444,3.04q.222,1.692.43,3.383.194,1.572.365,3.136l.158,1.552c.045.5.088,1.045.105,1.426a2.842,2.842,0,0,1-.017.559c-.033.241-.06.476-.1.733-.077.5-.169,1.018-.262,1.532l1.263-2.772a18.244,18.244,0,0,1-.628-1.726c-.051-.317.441-3.943.441-3.943Z" transform="translate(-184.172 -298.427)" fill="#824ea3"/>
                    </g>
                  </g>
                </g>
                <path id="Path_27565" data-name="Path 27565" d="M183.727,216.829a7.837,7.837,0,0,1,3.1.578c1,.593,1.642,2.28,1.642,4.332s-.867,6.248,0,8.665c.365,1.095.507,1.663-.04,1.983s-6.436.982-9.126.024c-.593-.365.456-2.235.456-3.329s-.73-8.209-.912-9.668,1.6-2.539,4.88-2.585" transform="translate(-168.729 -203.008)" fill="#7e3f98"/>
                <g id="Group_740" data-name="Group 740" transform="translate(10.351 17.355)" opacity="0.5" style="mix-blend-mode: multiply;isolation: isolate">
                  <g id="Group_739" data-name="Group 739">
                    <g id="Group_738" data-name="Group 738" clip-path="url(#clip-path-3)">
                      <path id="Path_27566" data-name="Path 27566" d="M181.9,238.6l-1.553,1.153c.282,2.672.679,6.758.679,7.566,0,.238,3.233,1.144,3.233,1.144s-2.01-2.887-2.357-3.58,0-6.283,0-6.283" transform="translate(-180.349 -238.598)" fill="#f5d47b"/>
                    </g>
                  </g>
                </g>
                <path id="Path_27567" data-name="Path 27567" d="M204.086,204.119a1.888,1.888,0,0,0,.187,1.689c.128.076,1.167.924-.04,1.063-1.437.166-1.595-.621-1.556-1.012.187-.675.407-2.187.407-2.187Z" transform="translate(-188.696 -191.988)" fill="#c79279"/>
                <path id="Path_27568" data-name="Path 27568" d="M178.279,254.767a3.77,3.77,0,0,1-1.334-.611c.874.411,1.27.065,1.2.072a2.5,2.5,0,0,1-.529-.155c-.125-.051-1.24-.644-1.15-.759a3.439,3.439,0,0,0,.684-.134c.054-.183-.49-.237-.6-.246a1.625,1.625,0,0,0-.791.173c-.691-.618-1.267-1.267-1.923-1.925-.328-.33-.651-.663-.958-1-.153-.168-.3-.337-.441-.5-.344-.416-.262-.761-.193-1.261.059-.438.135-.888.22-1.34.089-.471.185-.946.287-1.42a1.246,1.246,0,1,0-2.461-.34c-.03.5-.054,1.009-.071,1.52-.016.485-.024.973-.014,1.475a6.736,6.736,0,0,0,.086,1.2,2.511,2.511,0,0,0,.911,1.362c.19.17.379.328.568.483.379.308.76.6,1.145.887.766.568,1.536,1.115,2.334,1.642a1.95,1.95,0,0,0,.79,1.023c.614.384,1.3.565,1.263.469a1.457,1.457,0,0,1-.573-.421c.42.207,1.231.278,1.13.192a2.252,2.252,0,0,1-1.033-.556c.727.366,1.565.319,1.454.17" transform="translate(-161.496 -225.889)" fill="#c79279"/>
                <path id="Path_27569" data-name="Path 27569" d="M169.72,224.072a.528.528,0,0,0-.472.148,8.69,8.69,0,0,0-2.355,5.155c.674.4,3.316.265,3.316.265s1.223-5.285-.489-5.568" transform="translate(-158.726 -209.069)" fill="#7e3f98"/>
                <g id="Group_743" data-name="Group 743" transform="translate(14.038 11.684)" opacity="0.5" style="mix-blend-mode: multiply;isolation: isolate">
                  <g id="Group_742" data-name="Group 742">
                    <g id="Group_741" data-name="Group 741" clip-path="url(#clip-path-4)">
                      <path id="Path_27570" data-name="Path 27570" d="M203.4,203.672s-.179,1.222-.35,1.959a2.024,2.024,0,0,0,1.27-.367,2.359,2.359,0,0,1,.083-1.145Z" transform="translate(-203.054 -203.672)" fill="#efcab9"/>
                    </g>
                  </g>
                </g>
                <path id="Path_27571" data-name="Path 27571" d="M201.718,176.224a.45.45,0,1,1-.479-.42.451.451,0,0,1,.479.42" transform="translate(-187.143 -168.643)" fill="#db617d"/>
                <g id="Group_746" data-name="Group 746" transform="translate(13.722 7.47)" opacity="0.5" style="mix-blend-mode: multiply;isolation: isolate">
                  <g id="Group_745" data-name="Group 745">
                    <g id="Group_744" data-name="Group 744" clip-path="url(#clip-path-5)">
                      <path id="Path_27572" data-name="Path 27572" d="M201.961,177.827a.455.455,0,0,0-.02-.1.872.872,0,0,0-.833.334.45.45,0,0,0,.853-.23" transform="translate(-201.108 -177.717)" fill="#db617d"/>
                    </g>
                  </g>
                </g>
                <path id="Path_27573" data-name="Path 27573" d="M199.408,184.388a3.543,3.543,0,0,0,1.326,2.953,1.29,1.29,0,0,0,1.8.045,2.285,2.285,0,0,0,.575-1.67,3.318,3.318,0,0,0-.773-2.4,2.044,2.044,0,0,0-1.858-.433,1.526,1.526,0,0,0-1.068,1.5" transform="translate(-185.956 -174.52)" fill="#c79279"/>
                <path id="Path_27574" data-name="Path 27574" d="M210.533,202.617a2.386,2.386,0,0,1-.24,1.119s1.014.616,1.311.473c.587-.248.746-1.137.787-1.531a.174.174,0,0,0-.172-.193,5.728,5.728,0,0,0-1.687.132" transform="translate(-195.08 -190.993)" fill="#b2e6ff"/>
                <path id="Path_27575" data-name="Path 27575" d="M206.176,203.285c-.141,0-.283,0-.394-.011a.072.072,0,0,1-.066-.077.07.07,0,0,1,.077-.066c.313.023.926,0,.932,0a.075.075,0,0,1,.075.069.072.072,0,0,1-.069.075c-.017,0-.283.011-.555.011" transform="translate(-191.246 -191.534)" fill="#b2e6ff"/>
                <path id="Path_27576" data-name="Path 27576" d="M205.536,208.179a1.967,1.967,0,0,1-.89-.309.072.072,0,1,1,.07-.126c.634.35.877.286.88.285a.072.072,0,0,1,.09.047.071.071,0,0,1-.044.09.333.333,0,0,1-.1.013" transform="translate(-190.319 -195.391)" fill="#b2e6ff"/>
                <g id="Group_749" data-name="Group 749" transform="translate(15.213 11.774)" opacity="0.5" style="mix-blend-mode: multiply;isolation: isolate">
                  <g id="Group_748" data-name="Group 748">
                    <g id="Group_747" data-name="Group 747" clip-path="url(#clip-path-6)">
                      <path id="Path_27577" data-name="Path 27577" d="M212.381,204.225c-.182.239-.506.366-.55.5-.058.182.034.291-.489.393a1.54,1.54,0,0,1-.945-.183c-.055.154-.105.257-.105.257s1.014.616,1.311.473c.547-.231.721-1.017.777-1.442" transform="translate(-210.293 -204.225)" fill="#b2e6ff"/>
                    </g>
                  </g>
                </g>
                <path id="Path_27578" data-name="Path 27578" d="M199.254,196.919a7.808,7.808,0,0,0,.43,1.1c.2.35-.142.483-.369.151,0,0-.125-.36-.267-.4s-.237.18-.254.273a.449.449,0,0,0,.058.3c.061.107.19.188.227.307.044.141-.068.192-.176.145a1.745,1.745,0,0,1-.369-.249,2.42,2.42,0,0,1-.686-1.569s.968-.548,1.405-.062" transform="translate(-184.656 -186.163)" fill="#5f3e1b"/>
                <path id="Path_27579" data-name="Path 27579" d="M201.047,180.234a1.926,1.926,0,0,0-2.431-1.616,1.167,1.167,0,0,0-.417.152,1.956,1.956,0,0,0-1.031,2.2,5.779,5.779,0,0,0,3.88-.737" transform="translate(-184.032 -170.968)" fill="#edcfd6"/>
                <path id="Path_27580" data-name="Path 27580" d="M206.674,181.444a.043.043,0,0,1-.043-.038,3.125,3.125,0,0,0-1.164-2.037.043.043,0,0,1,.05-.071,3.221,3.221,0,0,1,1.2,2.1.043.043,0,0,1-.038.049h-.005" transform="translate(-191.021 -171.564)" fill="#dda8bf"/>
                <path id="Path_27581" data-name="Path 27581" d="M210.2,180.4a.043.043,0,0,1-.04-.027,2.365,2.365,0,0,0-1.745-1.4.044.044,0,0,1-.037-.049.042.042,0,0,1,.049-.037,2.455,2.455,0,0,1,1.814,1.453.043.043,0,0,1-.024.057.041.041,0,0,1-.016,0" transform="translate(-193.476 -171.226)" fill="#dda8bf"/>
                <path id="Path_27582" data-name="Path 27582" d="M199.06,182.98a.043.043,0,0,1-.043-.037,1.785,1.785,0,0,1,.611-1.851.043.043,0,0,1,.045.074,1.7,1.7,0,0,0-.571,1.764.043.043,0,0,1-.036.049h-.007" transform="translate(-185.608 -173.069)" fill="#dda8bf"/>
                <path id="Path_27583" data-name="Path 27583" d="M204.565,182.326a.043.043,0,0,1-.043-.035,10.642,10.642,0,0,1-.18-1.748.043.043,0,0,1,.043-.044h0a.043.043,0,0,1,.043.043,10.558,10.558,0,0,0,.179,1.732.043.043,0,0,1-.034.051h-.008" transform="translate(-190.095 -172.577)" fill="#dda8bf"/>
                <path id="Path_27584" data-name="Path 27584" d="M215.483,199.156c.011.139-.04.256-.114.262s-.144-.1-.156-.24.04-.256.114-.262.145.1.156.24" transform="translate(-199.199 -188.003)" fill="#5f3e1b"/>
                <path id="Path_27585" data-name="Path 27585" d="M212.372,195.941a.087.087,0,0,1-.01-.173c.533-.061.565-.377.566-.391a.088.088,0,0,1,.093-.08.086.086,0,0,1,.081.091c0,.019-.035.475-.72.552h-.01" transform="translate(-196.749 -184.972)" fill="#5f3e1b"/>
                <path id="Path_27586" data-name="Path 27586" d="M220.2,198.929c.01.126.074.223.141.217s.114-.112.1-.238-.074-.223-.141-.217-.114.112-.1.238" transform="translate(-203.379 -187.816)" fill="#5f3e1b"/>
                <path id="Path_27587" data-name="Path 27587" d="M220.367,195.656h-.01c-.56-.064-.589-.441-.59-.457a.087.087,0,0,1,.082-.092.084.084,0,0,1,.092.081c0,.012.028.249.436.3a.087.087,0,0,1-.01.173" transform="translate(-203.016 -184.813)" fill="#5f3e1b"/>
                <g id="Group_752" data-name="Group 752" transform="translate(13.087 8.159)" style="mix-blend-mode: multiply;isolation: isolate">
                  <g id="Group_751" data-name="Group 751">
                    <g id="Group_750" data-name="Group 750" clip-path="url(#clip-path-7)">
                      <path id="Path_27588" data-name="Path 27588" d="M200.6,181.962c-.24.443-1.078,1.356-3.4,1.564a2.137,2.137,0,0,0,.049.28,5.779,5.779,0,0,0,3.88-.737,2.121,2.121,0,0,0-.528-1.107" transform="translate(-197.195 -181.962)" fill="#edcfd6"/>
                    </g>
                  </g>
                </g>
                <path id="Path_27589" data-name="Path 27589" d="M200.629,188.811a.19.19,0,0,0-.248-.1,12.147,12.147,0,0,1-3.863.735.188.188,0,0,0-.189.2l.054.576a.192.192,0,0,0,.193.167,10.3,10.3,0,0,0,4.122-.786.17.17,0,0,0,.1-.191,4.238,4.238,0,0,0-.17-.6" transform="translate(-183.382 -179.447)" fill="#db617d"/>
                <g id="Group_755" data-name="Group 755" transform="translate(12.987 9.429)" opacity="0.5" style="mix-blend-mode: multiply;isolation: isolate">
                  <g id="Group_754" data-name="Group 754">
                    <g id="Group_753" data-name="Group 753" clip-path="url(#clip-path-8)">
                      <path id="Path_27590" data-name="Path 27590" d="M200.91,190.51a.17.17,0,0,0,.1-.191,4.687,4.687,0,0,0-.146-.539,2.906,2.906,0,0,1-2.21,1.14,7.881,7.881,0,0,1-2.074.073l.013.137a.192.192,0,0,0,.193.167,10.3,10.3,0,0,0,4.122-.786" transform="translate(-196.583 -189.78)" fill="#db617d"/>
                    </g>
                  </g>
                </g>
                <g id="Group_758" data-name="Group 758" transform="translate(15.466 17.355)" opacity="0.5" style="mix-blend-mode: multiply;isolation: isolate">
                  <g id="Group_757" data-name="Group 757">
                    <g id="Group_756" data-name="Group 756" clip-path="url(#clip-path-9)">
                      <path id="Path_27591" data-name="Path 27591" d="M216.121,239.818a16.748,16.748,0,0,0-1.6-1.221s.061,3.056.244,3.943-2.214,3.225-2.828,3.685,2.176,0,2.176,0,.856-.508,1.636-1.039c.058-1.943.376-3.971.376-5.213,0-.053,0-.1,0-.156" transform="translate(-211.849 -238.597)" fill="#f5d47b"/>
                    </g>
                  </g>
                </g>
                <path id="Path_27592" data-name="Path 27592" d="M196.264,246.559q-.037-.659-.09-1.312l0-.029a1.175,1.175,0,0,0-1.38-1.056l-.093.017a1.177,1.177,0,0,0-.937,1.42l0,.012q.137.611.258,1.221c.08.406.151.81.21,1.207a8.929,8.929,0,0,1,.093.895c-.046.037-.1.076-.151.114a7.891,7.891,0,0,1-.672.418c-.48.271-.992.525-1.509.77-1.036.488-1.693.742-2.763,1.171a1.62,1.62,0,0,0-.71-.389c-.107-.023-.644-.124-.644.067a3.44,3.44,0,0,0,.618.322c.054.135-1.183.391-1.317.4a2.509,2.509,0,0,1-.551,0c-.067-.027.215.417,1.169.269a3.772,3.772,0,0,1-1.452.21c-.148.113.643.393,1.443.247a2.25,2.25,0,0,1-1.148.242c-.121.054.678.215,1.139.134a1.459,1.459,0,0,1-.668.242c-.067.081.647.1,1.344-.094a1.963,1.963,0,0,0,1.054-.771c1.146-.282,1.862-.385,3-.737.567-.177,1.132-.364,1.7-.588.287-.114.574-.234.875-.388a3.86,3.86,0,0,0,.476-.285,2.386,2.386,0,0,0,.275-.226c.058-.062.115-.129.167-.2a1.6,1.6,0,0,0,.176-.341l.017-.046.018-.115a8.8,8.8,0,0,0,.091-1.472c0-.453-.019-.9-.043-1.337" transform="translate(-175.004 -225.888)" fill="#c79279"/>
                <path id="Path_27593" data-name="Path 27593" d="M227.553,220.39s2.345.674,3.419,5.46c-.3.593-2.837.678-2.837.678s-.994-4.526-.582-6.138" transform="translate(-209.454 -205.991)" fill="#db617d"/>
                <path id="Path_27594" data-name="Path 27594" d="M227.553,220.39s2.345.674,3.419,5.46c-.3.593-2.837.678-2.837.678s-.994-4.526-.582-6.138" transform="translate(-209.454 -205.991)" fill="#7e3f98"/>
                <g id="Group_761" data-name="Group 761" transform="translate(18.971 17.569)" opacity="0.5" style="mix-blend-mode: multiply;isolation: isolate">
                  <g id="Group_760" data-name="Group 760">
                    <g id="Group_759" data-name="Group 759" clip-path="url(#clip-path-10)">
                      <path id="Path_27595" data-name="Path 27595" d="M233.435,242.871c.674-.043,2.313-.193,2.548-.662a13.339,13.339,0,0,0-.718-2.289c-.164.953-.613,2.468-1.83,2.952" transform="translate(-233.435 -239.919)" fill="#f5d47b"/>
                    </g>
                  </g>
                </g>
                <g id="Group_764" data-name="Group 764" transform="translate(8.167 18.783)" opacity="0.5" style="mix-blend-mode: multiply;isolation: isolate">
                  <g id="Group_763" data-name="Group 763">
                    <g id="Group_762" data-name="Group 762" clip-path="url(#clip-path-11)">
                      <path id="Path_27596" data-name="Path 27596" d="M167.167,247.4a7.581,7.581,0,0,0-.273,1.523c.674.4,3.316.265,3.316.265a4.27,4.27,0,0,1-3.043-1.787" transform="translate(-166.894 -247.395)" fill="#f5d47b"/>
                    </g>
                  </g>
                </g>
                <path id="Path_27597" data-name="Path 27597" d="M426.551,131.707H416.128a2.434,2.434,0,0,0-2.434,2.434v40.506a2.434,2.434,0,0,0,2.434,2.434h10.423a2.434,2.434,0,0,0,2.434-2.434V134.141a2.434,2.434,0,0,0-2.434-2.434" transform="translate(-365.457 -131.707)" fill="#744393"/>
                <path id="Path_27599" data-name="Path 27599" d="M346.463,131.707H324.722a2.434,2.434,0,0,0-2.434,2.434v40.506a2.434,2.434,0,0,0,2.434,2.434h21.741a2.434,2.434,0,0,0,2.434-2.434V134.141a2.434,2.434,0,0,0-2.434-2.434" transform="translate(-288.891 -131.707)" fill="#9863b9"/>
                <path id="Path_27601" data-name="Path 27601" d="M493.935,165.351v6.962a1.381,1.381,0,0,0,1.381-1.381v-4.2a1.381,1.381,0,0,0-1.381-1.381" transform="translate(-432.67 -159.889)" fill="#a77ec2"/>
                <path id="Path_27602" data-name="Path 27602" d="M495.316,223.531c0,.552-.232,1-.784,1s-.6-.447-.6-1,.046-1,.6-1,.784.447.784,1" transform="translate(-432.67 -207.786)" fill="#a77ec2"/>
                <path id="Path_27603" data-name="Path 27603" d="M495.316,243.591c0,.552-.232,1-.784,1s-.6-.447-.6-1,.046-1,.6-1,.784.447.784,1" transform="translate(-432.67 -224.589)" fill="#a77ec2"/>
                <path id="Path_27604" data-name="Path 27604" d="M349.685,146.841a1.379,1.379,0,0,0-1.215.771,1.679,1.679,0,0,1-2.982,0,1.378,1.378,0,0,0-1.214-.771h-8.1v38.212h22.1V146.841Z" transform="translate(-300.523 -144.384)" fill="#b488cc"/>
                <path id="Path_27605" data-name="Path 27605" d="M398.416,141.5a1.035,1.035,0,1,1-1.035-1.035,1.035,1.035,0,0,1,1.035,1.035" transform="translate(-350.925 -139.043)" fill="#33586a"/>
                <path id="Path_27606" data-name="Path 27606" d="M385.944,389.707h-6.067a1.1,1.1,0,1,0,0,2.2h6.067a1.1,1.1,0,1,0,0-2.2" transform="translate(-336.209 -347.818)" fill="#a77ec2"/>
              </g>
            </g>
            <g id="Group_783" data-name="Group 783" transform="translate(35.651 18.451)">
              <g id="Group_782" data-name="Group 782" clip-path="url(#clip-path-13)">
                <path id="Path_27608" data-name="Path 27608" d="M380.182,431.436l.072,1.39a.788.788,0,0,0,.451.112.54.54,0,0,0,.423-.153l-.021-1.349Z" transform="translate(-373.037 -385.229)" fill="#efcab9"/>
                <path id="Path_27609" data-name="Path 27609" d="M367.062,439.418s-.362-.252-.605,0a1.777,1.777,0,0,1-1.19.674c-.609.057-.852.132-.832.627a14.86,14.86,0,0,0,3.82,0s.229-1.644-.319-1.341a4.617,4.617,0,0,1-.874.04" transform="translate(-359.845 -391.821)" fill="#3e7e8c"/>
                <path id="Path_27610" data-name="Path 27610" d="M377.827,289.846l-2.282-.492a1.292,1.292,0,0,0-1.552,1.089c-.2,1.511-.4,3.019-.593,4.533l-.359,2.971a31.311,31.311,0,0,0-.108,6.243c.015.171.26,2.956.26,2.956l.521,5.924,1.561-.023.369-5.919.184-2.957.092-1.478.046-.739.012-.185a12.423,12.423,0,0,1,.411-1.712l.37-1.4.787-2.839q.614-2.172,1.249-4.346a1.29,1.29,0,0,0-.967-1.624" transform="translate(-366.874 -266.191)" fill="#33586a"/>
                <g id="Group_778" data-name="Group 778" transform="translate(5.955 24.413)" opacity="0.5" style="mix-blend-mode: multiply;isolation: isolate">
                  <g id="Group_777" data-name="Group 777">
                    <g id="Group_776" data-name="Group 776" clip-path="url(#clip-path-14)">
                      <path id="Path_27611" data-name="Path 27611" d="M375.683,297.2s-.947.034-1.7.073c-.193,1.433-.38,2.863-.561,4.3l-.359,2.971c-.125,1.149-.2,2.265-.212,3.385a7.632,7.632,0,0,1,1.19-2.758,19.2,19.2,0,0,1,3.319-2.013l.207-.746q.584-2.068,1.188-4.138a14.734,14.734,0,0,0-3.073-1.073" transform="translate(-372.852 -297.204)" fill="#33586a"/>
                    </g>
                  </g>
                </g>
                <path id="Path_27612" data-name="Path 27612" d="M442.009,431.4l.5,1.3a.787.787,0,0,0,.464-.033.54.54,0,0,0,.355-.277l-.439-1.276Z" transform="translate(-424.826 -384.956)" fill="#efcab9"/>
                <path id="Path_27613" data-name="Path 27613" d="M433.985,438.86s-.422-.127-.575.188a1.777,1.777,0,0,1-.921,1.01c-.561.244-.769.39-.6.854a14.861,14.861,0,0,0,3.631-1.187s-.294-1.633-.72-1.175a4.636,4.636,0,0,1-.818.31" transform="translate(-416.302 -391.12)" fill="#3e7e8c"/>
                <path id="Path_27614" data-name="Path 27614" d="M408.776,310.41l-.7-2.879-.349-1.439-.174-.719-.044-.18a12.456,12.456,0,0,1-.114-1.757c0-.113-.061-1.45-.061-1.45l-.088-2.945c-.034-1.391-.063-2.787-.086-4.181a1.607,1.607,0,0,0-1.747-1.576l-1.647.145a1.607,1.607,0,0,0-1.444,1.865q.351,2.087.718,4.17l.534,2.944a31.31,31.31,0,0,0,1.742,6l1.122,2.747,2.248,5.505,1.485-.483Z" transform="translate(-391.565 -269.502)" fill="#33586a"/>
                <g id="Group_781" data-name="Group 781" transform="translate(10.948 26.056)" opacity="0.5" style="mix-blend-mode: multiply;isolation: isolate">
                  <g id="Group_780" data-name="Group 780">
                    <g id="Group_779" data-name="Group 779" clip-path="url(#clip-path-15)">
                      <path id="Path_27615" data-name="Path 27615" d="M408.375,311.91l-.033-1.105c-.027-1.107-.048-2.218-.068-3.327a1.113,1.113,0,0,0-.943-.089l-1.933.127a14.132,14.132,0,0,0-1.791.657q.26,1.528.528,3.056l.534,2.944c.221,1.136.481,2.226.8,3.3a15.672,15.672,0,0,1,.528-3.167,17.259,17.259,0,0,1,2.377-2.4" transform="translate(-403.607 -307.323)" fill="#33586a"/>
                    </g>
                  </g>
                </g>
              </g>
            </g>
            <g id="Group_794" data-name="Group 794" transform="translate(1.271)">
              <g id="Group_965" data-name="Group 965">
                <path id="Path_27617" data-name="Path 27617" d="M317.292,201.044a1.607,1.607,0,0,0-.131-1.063c-.275-.537-.126-.694-.223-.775s-.293.454-.14.9a1.429,1.429,0,0,1-.659-.7c-.147-.326-.244-.853-.317-.908s-.12.553.052,1.1a9.258,9.258,0,0,1-.511-1.313c-.07-.106-.177.651.135,1.432,0,0-.366-.491-.53-.742s.037.472.388,1.014c-.1.019-.564-.6-.64-.609a3.762,3.762,0,0,0,.69,1.285,5.08,5.08,0,0,0,1.2.823Z" transform="translate(-283.813 -171.466)" fill="#efcab9"/>
                <path id="Path_27618" data-name="Path 27618" d="M336.255,209.951a1.5,1.5,0,0,0-2.113.17c-.371.436-.771.886-1.164,1.323s-2.341,2.13-2.924,2.674q-.222-.175-.442-.363c-.392-.337-2.95-3.117-3.279-3.534l-1.089.736c.278.5.727,1.176,1.025,1.654s.606.947.933,1.409.666.921,1.04,1.367c.46.549,1.159,1.689,2,1.2a36.788,36.788,0,0,0,3.086-2.072c.495-.363.982-.734,1.465-1.109s.959-.751,1.445-1.151l.008-.006a1.528,1.528,0,0,0,.182-.18,1.5,1.5,0,0,0-.17-2.113" transform="translate(-292.638 -180.954)" fill="#fffffc"/>
                <path id="Path_27619" data-name="Path 27619" d="M366.715,209.951a1.5,1.5,0,0,0-2.113.17c-.371.436-.771.886-1.164,1.323-.123.136-.4.394-.732.7l-.267,2.527-.831,1.349c.75-.482,1.468-.991,2.177-1.51.495-.363.982-.734,1.465-1.109s.958-.751,1.445-1.151l.008-.006a1.524,1.524,0,0,0,.182-.18,1.5,1.5,0,0,0-.17-2.113" transform="translate(-323.098 -180.954)" fill="#ecf6ff"/>
                <path id="Path_27620" data-name="Path 27620" d="M383.244,219.372c-.078-2.443-.036-6.43-.031-8.585a1.682,1.682,0,0,0-1.165-1.6,15.683,15.683,0,0,0-3.162-.664,3.232,3.232,0,0,0-.511-.01l-2.815.164a1.1,1.1,0,0,0-.962.7,17.266,17.266,0,0,0-.99,4.621c-.156,2.756-.152,13.147-.152,13.147a11.347,11.347,0,0,0,3.031.589l.748-2.135.647,2.148a40.431,40.431,0,0,0,4.135-.227l.512-1.345.294,1.149,1.145-.047s-.645-5.431-.724-7.9" transform="translate(-333.024 -180.042)" fill="#fffffc"/>
                <path id="Path_27621" data-name="Path 27621" d="M393.55,208.847s-1.057,2.351-.357,6.749l3.025-6.669a18.008,18.008,0,0,0-2.667-.08" transform="translate(-349.355 -180.311)" fill="#3e7e8c"/>
                <path id="Path_27622" data-name="Path 27622" d="M398.76,194.793s-1.176-.422-1.289.245a1.763,1.763,0,0,1-1.106,1.943s-.355,1.441.81,1.357a2.026,2.026,0,0,0,1.857-1.277c-.909-.782-.272-2.268-.272-2.268" transform="translate(-352.17 -168.446)" fill="#efcab9"/>
                <path id="Path_27623" data-name="Path 27623" d="M397.452,209.444l-3.025,6.669,3.025-2.613-.408-1.539,1.367-1.757Z" transform="translate(-350.589 -180.829)" fill="#b8e1ff"/>
                <path id="Path_27624" data-name="Path 27624" d="M388.212,208.954a20.579,20.579,0,0,0-.357,6.749,17.447,17.447,0,0,1-1.274-3.539l.628-1.166-.359-1.368Z" transform="translate(-344.017 -180.418)" fill="#b8e1ff"/>
                <g id="Group_786" data-name="Group 786" transform="translate(45.057 26.28)" opacity="0.5" style="mix-blend-mode: multiply;isolation: isolate">
                  <g id="Group_785" data-name="Group 785">
                    <g id="Group_784" data-name="Group 784" clip-path="url(#clip-path-16)">
                      <path id="Path_27625" data-name="Path 27625" d="M403.236,195.06c-.2.126-.658.374-1.053.586a1.755,1.755,0,0,1-.248.958,1.715,1.715,0,0,0,1.455.316,2.593,2.593,0,0,1,.078-1.793s-.1-.034-.232-.067" transform="translate(-401.935 -195.06)" fill="#efcab9"/>
                    </g>
                  </g>
                </g>
                <path id="Path_27626" data-name="Path 27626" d="M396.073,174.849a1.69,1.69,0,0,0-2.109,1.226s-.659,3.012.175,3.373a2.741,2.741,0,0,0,3.137-1.6,2.031,2.031,0,0,0-1.2-3" transform="translate(-349.994 -151.823)" fill="#efcab9"/>
                <path id="Path_27627" data-name="Path 27627" d="M392.462,170.172a3.663,3.663,0,0,1-.212-2.046c.193-.336.577-.116.558-.216s-.368-1.385.747-1.372,2.868,1.477,3.407,2.041-.236,3.085-1.848,3.41a1.61,1.61,0,0,0,.137-.289c.064-.128.074-.279.187-.369a.906.906,0,0,0,.329-.427c.078-.261-.064-.534-.353-.5-.267.034-.332.275-.345.509-.028.495-.327.527-.409.225a8.611,8.611,0,0,1,.327-1.84,3.285,3.285,0,0,1-1.939-.36,5.352,5.352,0,0,0-.585,1.232" transform="translate(-348.69 -144.888)" fill="#3e7e8c"/>
                <path id="Path_27628" data-name="Path 27628" d="M400.7,189.036c-.036.14,0,.27.071.29s.166-.078.2-.219,0-.27-.071-.29-.166.078-.2.219" transform="translate(-355.83 -163.549)" fill="#5f3e1b"/>
                <path id="Path_27629" data-name="Path 27629" d="M401.6,185.876a.091.091,0,0,1-.162.08c-.275-.488-.592-.39-.606-.385a.091.091,0,0,1-.115-.057.09.09,0,0,1,.055-.115c.019-.007.471-.159.823.467l0,.009" transform="translate(-355.855 -160.67)" fill="#0d7384"/>
                <path id="Path_27630" data-name="Path 27630" d="M396.049,187.98c-.033.127-.115.216-.184.2s-.1-.135-.065-.263.115-.216.184-.2.1.135.065.263" transform="translate(-351.729 -162.628)" fill="#5f3e1b"/>
                <path id="Path_27631" data-name="Path 27631" d="M393.74,184.461l.007-.007c.442-.389.754-.146.766-.136a.09.09,0,0,1,.014.127.088.088,0,0,1-.126.014c-.01-.007-.212-.153-.534.13a.091.091,0,0,1-.127-.129" transform="translate(-349.994 -159.712)" fill="#0d7384"/>
                <path id="Path_27632" data-name="Path 27632" d="M395.821,190.377q-.132.143-.252.3a1.9,1.9,0,0,0-.215.316c-.026.053-.051.119-.034.153a.166.166,0,0,0,.121.079,1.838,1.838,0,0,0,.376.044,0,0,0,0,1,0,0,0,0,0,0,1,0,0,.856.856,0,0,1-.4.032.391.391,0,0,1-.1-.038.179.179,0,0,1-.078-.1.283.283,0,0,1,.054-.214,1.951,1.951,0,0,1,.243-.311q.134-.143.279-.273a0,0,0,0,1,.006,0,0,0,0,0,1,0,.006" transform="translate(-351.264 -164.851)" fill="#e8a489"/>
                <path id="Path_27633" data-name="Path 27633" d="M395.523,197.4c.108.012.207.022.306.026a2.188,2.188,0,0,0,.3.008,1.08,1.08,0,0,0,.293-.07,1.4,1.4,0,0,0,.277-.138.007.007,0,0,1,.009,0,.007.007,0,0,1,0,.009,1.451,1.451,0,0,1-.258.186,1.162,1.162,0,0,1-.3.113.769.769,0,0,1-.329.018.6.6,0,0,1-.3-.143.007.007,0,0,1,0-.01l.006,0" transform="translate(-351.5 -170.589)" fill="#d67e5f"/>
                <g id="Group_789" data-name="Group 789" transform="translate(43.601 22.988)" opacity="0.5" style="mix-blend-mode: multiply;isolation: isolate">
                  <g id="Group_788" data-name="Group 788">
                    <g id="Group_787" data-name="Group 787" clip-path="url(#clip-path-17)">
                      <path id="Path_27634" data-name="Path 27634" d="M396.718,176.818c.208-.385-.028-.684-.625-.837s-1.306-1.125-1.806-1.19-.583.537-.583.537a.6.6,0,0,0-.5.056c-.183.1-.227.751-.237,1.142a5.36,5.36,0,0,0,.171.556,5.353,5.353,0,0,1,.585-1.232,3.285,3.285,0,0,0,1.939.36,8.609,8.609,0,0,0-.327,1.84c.082.3.382.27.41-.225.013-.233.078-.475.345-.509.289-.037.431.237.353.5a.906.906,0,0,1-.329.427c-.114.09-.123.24-.187.369a1.611,1.611,0,0,1-.137.289,2.581,2.581,0,0,0,1.684-1.516c-.62.161-.946-.216-.757-.565" transform="translate(-392.967 -174.786)" fill="#3e7e8c"/>
                    </g>
                  </g>
                </g>
                <path id="Path_27635" data-name="Path 27635" d="M407.176,251.838l.512-1.345.294,1.149,1.145-.047s-.645-5.431-.724-7.9c-.054-1.685-.05-4.106-.042-6.153l-.931.2s.367,3.466.33,4.7a33.468,33.468,0,0,1-.762,4.278l1.053,1.96A3.534,3.534,0,0,1,407,250.492a24.962,24.962,0,0,1-3.507,1.548,31.721,31.721,0,0,0,3.685-.2" transform="translate(-358.182 -204.363)" fill="#ecf6ff"/>
                <path id="Path_27636" data-name="Path 27636" d="M440.57,298.073a1.607,1.607,0,0,0-.513.94c-.09.6-.3.637-.271.76s.5-.2.639-.651a1.429,1.429,0,0,1,.125.957c-.071.351-.3.835-.271.923s.42-.379.6-.922a9.276,9.276,0,0,1-.35,1.365c0,.127.523-.426.724-1.242,0,0,.012.613,0,.912s.245-.406.276-1.05c.095.044.106.819.165.867a3.763,3.763,0,0,0,.188-1.446,5.079,5.079,0,0,0-.5-1.368Z" transform="translate(-388.581 -255.068)" fill="#efcab9"/>
                <path id="Path_27637" data-name="Path 27637" d="M415.712,213.542a1.664,1.664,0,0,1,2.5.06c.436.524.861,1.057,1.283,1.614a19,19,0,0,1,1.165,1.7c.093.158.186.317.277.507l.067.136.034.07.04.1.076.192.049.168a5.916,5.916,0,0,1,.182,1.154,72.489,72.489,0,0,1-.386,7.766l-1.177-.078c-.03-1.25-.092-2.51-.19-3.752a24.741,24.741,0,0,0-.5-3.6,3.432,3.432,0,0,0-.234-.688l-.029-.055a.187.187,0,0,1-.023-.022l-.088-.111c-.063-.086-.15-.186-.238-.285a16.9,16.9,0,0,0-1.227-1.222c-.456-.415-.933-.829-1.419-1.232A1.669,1.669,0,0,1,415.712,213.542Z" transform="translate(-368.048 -183.813)" fill="#fffffc"/>
                <path id="Path_27638" data-name="Path 27638" d="M393,253.384c-.017.374-.037.747-.047,1.121s-.028.747-.036,1.121c-.017.747-.031,1.494-.02,2.24s.031,1.492.069,2.238c.026.372.046.745.088,1.116.025.373.083.742.123,1.115a18.078,18.078,0,0,1-.344-2.221c-.066-.747-.1-1.5-.109-2.246,0-.75.015-1.5.06-2.247s.109-1.495.216-2.236" transform="translate(-349.164 -217.634)" fill="#ecf6ff"/>
                <path id="Path_27639" data-name="Path 27639" d="M394.488,264.218a.385.385,0,1,1-.385-.385.385.385,0,0,1,.385.385" transform="translate(-349.995 -226.386)" fill="#b8e1ff"/>
                <path id="Path_27640" data-name="Path 27640" d="M395.026,288.915a.385.385,0,1,1-.385-.385.385.385,0,0,1,.385.385" transform="translate(-350.445 -247.074)" fill="#b8e1ff"/>
                <path id="Path_27641" data-name="Path 27641" d="M274.284,102.613H261.1a.6.6,0,0,0-.6.6v19.137a.6.6,0,0,0,.6.6h13.181a.6.6,0,0,0,.6-.6V103.217a.6.6,0,0,0-.6-.6" transform="translate(-240.48 -94.704)" fill="#fff" stroke="#d5c3df" stroke-width="1"/>
                <g id="Group_1599" data-name="Group 1599" transform="translate(21.511 9.169)">
                  <rect id="Rectangle_392" data-name="Rectangle 392" width="4.796" height="4.796" transform="translate(0.058 0)" fill="#f5d47b"/>
                  <path id="Path_27642" data-name="Path 27642" d="M277.59,114.461a.87.87,0,1,0-.87-.87.87.87,0,0,0,.87.87" transform="translate(-275.134 -112.063)" fill="#fff"/>
                  <path id="Path_27643" data-name="Path 27643" d="M275.938,122.484h0a1.257,1.257,0,0,0-1.257,1.257v1.049h2.514v-1.049a1.257,1.257,0,0,0-1.257-1.257" transform="translate(-273.482 -119.974)" fill="#fff"/>
                  <path id="Path_27644" data-name="Path 27644" d="M303.936,131.007H298.76a.335.335,0,0,0,0,.669h5.176a.335.335,0,1,0,0-.669" transform="translate(-292.722 -126.88)" fill="#f5e2a2"/>
                  <path id="Path_27645" data-name="Path 27645" d="M303.936,125.035H298.76a.335.335,0,0,0,0,.669h5.176a.335.335,0,1,0,0-.669" transform="translate(-292.722 -122.041)" fill="#f5e2a2"/>
                  <path id="Path_27646" data-name="Path 27646" d="M298.759,119.733h5.176a.335.335,0,1,0,0-.669h-5.176a.335.335,0,0,0,0,.669" transform="translate(-292.721 -117.203)" fill="#f5e2a2"/>
                  <path id="Path_27647" data-name="Path 27647" d="M298.759,113.761h3.261a.335.335,0,1,0,0-.669h-3.261a.335.335,0,0,0,0,.669" transform="translate(-292.721 -112.364)" fill="#f5e2a2"/>
                  <path id="Path_27648" data-name="Path 27648" d="M279.912,174.183H268.364v-4.766a.058.058,0,1,1,.115,0v4.651h11.433a.058.058,0,0,1,0,.115" transform="translate(-268.364 -157.957)" fill="#b1b1b0"/>
                  <path id="Path_27649" data-name="Path 27649" d="M273.165,179.652a3.139,3.139,0,0,1,3.053-2.419c2.561-.045,3.287,1.957,4.274,1.886,1.114-.08,1.734-1.625,3.063-1.625v2.158Z" transform="translate(-272.254 -164.336)" fill="#f5e2a2"/>
                  <rect id="Rectangle_393" data-name="Rectangle 393" width="0.853" height="0.853" transform="translate(0.058 16.87)" fill="#85c7db"/>
                  <rect id="Rectangle_394" data-name="Rectangle 394" width="0.853" height="0.853" transform="translate(3.982 16.87)" fill="#3e7e8c"/>
                  <rect id="Rectangle_395" data-name="Rectangle 395" width="0.853" height="0.853" transform="translate(7.906 16.87)" fill="#f6dc7c"/>
                  <path id="Path_27650" data-name="Path 27650" d="M279.365,142.536h-10.7a.3.3,0,1,0,0,.6h10.7a.3.3,0,1,0,0-.6" transform="translate(-268.363 -136.222)" fill="#a77ec2"/>
                  <path id="Path_27651" data-name="Path 27651" d="M279.365,150.421h-10.7a.3.3,0,1,0,0,.6h10.7a.3.3,0,1,0,0-.6" transform="translate(-268.363 -142.612)" fill="#a77ec2"/>
                  <path id="Path_27652" data-name="Path 27652" d="M275.045,158.307h-6.382a.3.3,0,0,0,0,.6h6.382a.3.3,0,0,0,0-.6" transform="translate(-268.364 -149.002)" fill="#a77ec2"/>
                </g>
                <path id="Path_27653" data-name="Path 27653" d="M376.245,447.089c0,.323-3.822.584-8.538.584s-8.538-.262-8.538-.584,3.822-.585,8.538-.585,8.538.262,8.538.585" transform="translate(-321.057 -379.4)" fill="#fffffc"/>
                <path id="Path_27661" data-name="Path 27661" d="M536.52,295.765a3.888,3.888,0,1,1-3.888-3.888,3.888,3.888,0,0,1,3.888,3.888" transform="translate(-463.099 -249.878)" fill="#a77ec2"/>
                <g id="Group_966" data-name="Group 966" transform="translate(66.763 43.8)">
                  <path id="Path_27662" data-name="Path 27662" d="M549.234,321.057a.831.831,0,1,1-.831-.831.831.831,0,0,1,.831.831" transform="translate(-545.489 -317.134)" fill="#d5c3df"/>
                  <path id="Path_27663" data-name="Path 27663" d="M546.4,315.336a.215.215,0,0,1-.153-.064,1.542,1.542,0,0,0-2.181,0,.217.217,0,0,1-.306-.306,1.975,1.975,0,0,1,2.793,0,.217.217,0,0,1-.153.37" transform="translate(-542.243 -312.244)" fill="#d5c3df"/>
                  <path id="Path_27664" data-name="Path 27664" d="M543.183,308.92a.215.215,0,0,1-.153-.063,2.636,2.636,0,0,0-3.728,0,.217.217,0,0,1-.306-.306,3.069,3.069,0,0,1,4.34,0,.217.217,0,0,1-.153.37" transform="translate(-538.251 -306.601)" fill="#d5c3df"/>
                  <path id="Path_27665" data-name="Path 27665" d="M534.954,302.735a.217.217,0,0,1-.153-.37,4.032,4.032,0,0,1,5.7,0,.217.217,0,1,1-.306.306,3.6,3.6,0,0,0-5.09,0,.215.215,0,0,1-.153.064" transform="translate(-534.738 -301.184)" fill="#d5c3df"/>
                </g>
                <path id="Path_27666" data-name="Path 27666" d="M195.473,62.786a5.364,5.364,0,1,1-5.364-5.364,5.364,5.364,0,0,1,5.364,5.364" transform="translate(-171.297 -57.422)" fill="#a77ec2"/>
                <path id="Path_27667" data-name="Path 27667" d="M201.842,74.617a2.068,2.068,0,0,0-2.614,1.35,2.068,2.068,0,0,0-2.614-1.35c-1.983.6-.893,5.455,2.614,5.809,3.506-.354,4.6-5.207,2.614-5.809" transform="translate(-180.417 -71.729)" fill="#fff"/>
                <path id="Path_27668" data-name="Path 27668" d="M202.209,89.817a.185.185,0,0,1-.174-.119l-.653-1.689-.466.933a.186.186,0,0,1-.167.1h-1.414a.14.14,0,0,1,0-.281h1.356l.536-1.071a.187.187,0,0,1,.341.016l.636,1.644.545-1.628a.186.186,0,0,1,.344-.023l.494,1h1.51a.14.14,0,1,1,0,.281h-1.569a.188.188,0,0,1-.167-.1l-.419-.85-.555,1.659a.185.185,0,0,1-.173.127h0m1.4-1.06h0" transform="translate(-183.401 -82.692)" fill="#f5e2a2"/>
                <path id="Path_27669" data-name="Path 27669" d="M289.806,395.948h-1.427a.231.231,0,0,0-.231.231v.451h1.888v-.451a.231.231,0,0,0-.231-.231" transform="translate(-261.566 -337.052)" fill="#9863b9"/>
                <path id="Path_27670" data-name="Path 27670" d="M291.558,361.292h-.239l-.37,5.874h.978Z" transform="translate(-263.912 -308.023)" fill="#9863b9"/>
                <path id="Path_27671" data-name="Path 27671" d="M279.034,407.744h-4.78a.967.967,0,0,0-.967.967v7.775a.967.967,0,0,0,.967.967h4.78a.967.967,0,0,0,.967-.967v-7.775a.967.967,0,0,0-.967-.967" transform="translate(-249.118 -346.933)" fill="#a77ec2"/>
                <path id="Path_27672" data-name="Path 27672" d="M285.648,399.349h-2.854a.461.461,0,0,0-.461.461v.9h3.776v-.9a.461.461,0,0,0-.461-.461" transform="translate(-256.695 -339.901)" fill="#d5c3df"/>
                <path id="Path_27673" data-name="Path 27673" d="M284.04,424.661a2.386,2.386,0,1,1-2.386-2.386,2.386,2.386,0,0,1,2.386,2.386" transform="translate(-254.127 -359.104)" fill="#9863b9"/>
                <path id="Path_27678" data-name="Path 27678" d="M448.88,154.1H435.207a1.5,1.5,0,0,0-1.5,1.5v4.752a1.5,1.5,0,0,0,1.5,1.5,1.354,1.354,0,0,1-.539,1.64c.952.038,2.361-.881,2.4-1.64H448.88a1.5,1.5,0,0,0,1.5-1.5V155.6a1.5,1.5,0,0,0-1.5-1.5" transform="translate(-383.491 -134.472)" fill="#fff"/>
                <path id="Path_27679" data-name="Path 27679" d="M459.973,162.367H451.54a.391.391,0,1,0,0,.78h8.432a.391.391,0,1,0,0-.78" transform="translate(-397.814 -141.108)" fill="#f5d47b"/>
                <path id="Path_27680" data-name="Path 27680" d="M459.973,175.225H451.54a.391.391,0,1,0,0,.78h8.432a.391.391,0,1,0,0-.78" transform="translate(-397.814 -152.209)" fill="#f5d47b"/>
                <path id="Path_27681" data-name="Path 27681" d="M457.523,188.082h-6.1a.4.4,0,0,0,0,.78h6.1a.4.4,0,0,0,0-.78" transform="translate(-397.814 -163.309)" fill="#f5d47b"/>
                <path id="Path_27682" data-name="Path 27682" d="M501.073,410.346h-3.111a.4.4,0,0,0,0,.807h.2v6.028a1.351,1.351,0,0,0,2.7,0v-6.028h.2a.4.4,0,1,0,0-.807" transform="translate(-436.977 -349.112)" fill="#fff"/>
                <path id="Path_27683" data-name="Path 27683" d="M504.625,426.323a1.7,1.7,0,0,0-.969-.281v4.308a.969.969,0,0,0,1.938,0V426.6a1.7,1.7,0,0,1-.969-.281" transform="translate(-442.084 -362.26)" fill="#d5c3df"/>
                <path id="Path_27684" data-name="Path 27684" d="M532.074,410.346h-3.111a.4.4,0,0,0,0,.807h.2v6.028a1.351,1.351,0,1,0,2.7,0v-6.028h.2a.4.4,0,1,0,0-.807" transform="translate(-462.944 -349.112)" fill="#fff"/>
                <path id="Path_27685" data-name="Path 27685" d="M535.627,417.989a1.7,1.7,0,0,0-.969-.281v5.661a.969.969,0,1,0,1.938,0v-5.1a1.7,1.7,0,0,1-.969-.281" transform="translate(-468.052 -355.279)" fill="#c0a0d1"/>
                <path id="Path_27686" data-name="Path 27686" d="M496.9,416.2h-.07a.32.32,0,0,0-.32.32v.387H484.52v-.387a.32.32,0,0,0-.32-.32h-.07a.32.32,0,0,0-.32.32v8.631a.711.711,0,0,0,.711.711h11.994a.711.711,0,0,0,.711-.711V416.52a.32.32,0,0,0-.32-.32m-.39,7.543a.38.38,0,0,1-.38.38H484.9a.38.38,0,0,1-.38-.38v-6.136h11.994Z" transform="translate(-425.459 -354.015)" fill="#a77ec2"/>
                <path id="Path_27689" data-name="Path 27689" d="M131.111,315.822h-5.7a.99.99,0,0,0-.99.99v5.7a.99.99,0,0,0,.99.99h5.7a.99.99,0,0,0,.99-.99v-5.7a.99.99,0,0,0-.99-.99" transform="translate(-124.424 -269.935)" fill="#a77ec2"/>
                <path id="Path_27690" data-name="Path 27690" d="M133.29,324.779h-1.413a.665.665,0,0,0-.665.624c-.045.74.009,1.925.742,2.344,1.1.628,3.088-.314,3.088-.314v-3.9a.364.364,0,0,0-.658-.215,2.54,2.54,0,0,0-.447.947.663.663,0,0,1-.648.512" transform="translate(-130.101 -276.091)" fill="#fff" opacity="0.8"/>
                <path id="Path_27691" data-name="Path 27691" d="M158.012,333.844h-.82a.136.136,0,0,0-.136.136v2.2a.136.136,0,0,0,.136.136h.82a.136.136,0,0,0,.136-.136v-2.2a.136.136,0,0,0-.136-.136" transform="translate(-151.758 -285.031)" fill="#fff" opacity="0.8"/>
                <path id="Path_27692" data-name="Path 27692" d="M134.686,127.94h-5.7a.99.99,0,0,0-.99.99v5.7a.99.99,0,0,0,.99.99h5.7a.99.99,0,0,0,.99-.99v-5.7a.99.99,0,0,0-.99-.99" transform="translate(-121.609 -114.425)" fill="#a77ec2"/>
                <path id="Path_27693" data-name="Path 27693" d="M141.569,138.789H140.13a.2.2,0,0,1-.2-.2v-1.439a.2.2,0,0,0-.2-.2h-.7a.2.2,0,0,0-.2.2v1.439a.2.2,0,0,1-.2.2h-1.439a.2.2,0,0,0-.2.2v.7a.2.2,0,0,0,.2.2h1.439a.2.2,0,0,1,.2.2v1.439a.2.2,0,0,0,.2.2h.7a.2.2,0,0,0,.2-.2v-1.439a.2.2,0,0,1,.2-.2h1.439a.2.2,0,0,0,.2-.2v-.7a.2.2,0,0,0-.2-.2" transform="translate(-129.162 -121.979)" fill="#fff9e8"/>
                <path id="Path_27694" data-name="Path 27694" d="M220.927,146.044l-.717-.232a.734.734,0,0,1-.474-.477l-.227-.718a.081.081,0,0,0-.154,0l-.232.717a.734.734,0,0,1-.477.474l-.718.227a.081.081,0,0,0,0,.154l.717.232a.734.734,0,0,1,.474.477l.227.718a.081.081,0,0,0,.154,0l.232-.717a.734.734,0,0,1,.477-.474l.718-.227a.081.081,0,0,0,0-.154" transform="translate(-202.699 -126.48)" fill="#fff"/>
              </g>
            </g>
          </g>
        </g>
      </g>
    </g>
  </g>
</svg>
